<svg width="166" height="166" viewBox="0 0 166 166" fill="none" xmlns="http://www.w3.org/2000/svg">
<circle cx="83.5" cy="83.5" r="67.5" fill="#83C2D5"/>
<path d="M51.808 53.16C51.6053 53.16 51.4507 53.128 51.344 53.064C51.248 53.0107 51.184 52.9307 51.152 52.824C51.12 52.7067 51.104 52.5733 51.104 52.424V42.712C51.104 42.5733 51.12 42.4507 51.152 42.344C51.1947 42.2373 51.2693 42.152 51.376 42.088C51.4827 42.024 51.632 41.992 51.824 41.992H55.328C55.84 41.992 56.3093 42.072 56.736 42.232C57.1733 42.3813 57.552 42.616 57.872 42.936C58.2027 43.2453 58.4587 43.624 58.64 44.072C58.8213 44.52 58.912 45.0373 58.912 45.624C58.912 46.2 58.8213 46.712 58.64 47.16C58.4587 47.608 58.2027 47.9867 57.872 48.296C57.5413 48.5947 57.1573 48.824 56.72 48.984C56.2933 49.144 55.824 49.224 55.312 49.224H52.56V52.44C52.56 52.5893 52.5387 52.7173 52.496 52.824C52.464 52.9307 52.3947 53.0107 52.288 53.064C52.192 53.128 52.032 53.16 51.808 53.16ZM52.56 47.768H55.328C55.7547 47.768 56.128 47.688 56.448 47.528C56.768 47.3573 57.0187 47.112 57.2 46.792C57.3813 46.4613 57.472 46.0613 57.472 45.592C57.472 45.144 57.3867 44.76 57.216 44.44C57.0453 44.12 56.7947 43.8747 56.464 43.704C56.144 43.5333 55.76 43.448 55.312 43.448H52.56V47.768ZM61.5454 53.16C61.332 53.16 61.172 53.128 61.0654 53.064C60.9694 53.0107 60.9054 52.9307 60.8734 52.824C60.8414 52.7067 60.8254 52.5733 60.8254 52.424V42.712C60.8254 42.4347 60.8787 42.248 60.9854 42.152C61.1027 42.0453 61.3054 41.992 61.5934 41.992H68.0254C68.1747 41.992 68.3027 42.008 68.4094 42.04C68.516 42.072 68.596 42.1413 68.6494 42.248C68.7027 42.3547 68.7294 42.5147 68.7294 42.728C68.7294 42.9413 68.6974 43.1013 68.6334 43.208C68.58 43.304 68.5 43.368 68.3934 43.4C68.2867 43.432 68.1587 43.448 68.0094 43.448H62.2654V46.76H66.2654C66.4147 46.76 66.5374 46.776 66.6334 46.808C66.74 46.84 66.82 46.904 66.8734 47C66.9267 47.096 66.9534 47.2453 66.9534 47.448C66.9534 47.64 66.9267 47.784 66.8734 47.88C66.82 47.976 66.74 48.04 66.6334 48.072C66.5267 48.0933 66.3934 48.104 66.2334 48.104H62.2654V51.72H68.0254C68.1747 51.72 68.3027 51.736 68.4094 51.768C68.516 51.8 68.596 51.8693 68.6494 51.976C68.7027 52.072 68.7294 52.2267 68.7294 52.44C68.7294 52.6533 68.6974 52.8133 68.6334 52.92C68.58 53.016 68.5 53.08 68.3934 53.112C68.2867 53.144 68.1587 53.16 68.0094 53.16H61.5454ZM71.4981 53.16C71.2955 53.16 71.1408 53.128 71.0341 53.064C70.9275 53.0107 70.8581 52.9307 70.8261 52.824C70.8048 52.7067 70.7941 52.5733 70.7941 52.424V42.696C70.7941 42.5573 70.8101 42.44 70.8421 42.344C70.8848 42.2373 70.9541 42.152 71.0501 42.088C71.1568 42.024 71.3115 41.992 71.5141 41.992H75.0501C75.5728 41.992 76.0475 42.072 76.4741 42.232C76.9115 42.3813 77.2901 42.6053 77.6101 42.904C77.9301 43.2027 78.1755 43.5813 78.3461 44.04C78.5275 44.488 78.6181 45.0107 78.6181 45.608C78.6181 45.9813 78.5595 46.3707 78.4421 46.776C78.3248 47.1707 78.1435 47.544 77.8981 47.896C77.6635 48.248 77.3595 48.5413 76.9861 48.776C76.6128 49.0107 76.1595 49.144 75.6261 49.176H72.2341V52.44C72.2341 52.5893 72.2128 52.7173 72.1701 52.824C72.1381 52.9307 72.0688 53.0107 71.9621 53.064C71.8661 53.128 71.7115 53.16 71.4981 53.16ZM78.3621 52.984C78.1381 53.1333 77.9461 53.1813 77.7861 53.128C77.6368 53.0747 77.4928 52.9467 77.3541 52.744L74.7941 48.648L76.3781 48.408L78.5861 51.928C78.6928 52.0987 78.7568 52.2427 78.7781 52.36C78.8101 52.4773 78.7888 52.584 78.7141 52.68C78.6501 52.776 78.5328 52.8773 78.3621 52.984ZM72.2341 47.768H75.4021C75.6475 47.768 75.8768 47.7253 76.0901 47.64C76.3035 47.544 76.4901 47.4053 76.6501 47.224C76.8101 47.0427 76.9381 46.8187 77.0341 46.552C77.1301 46.2853 77.1781 45.9653 77.1781 45.592C77.1781 45.1333 77.0928 44.744 76.9221 44.424C76.7621 44.104 76.5221 43.864 76.2021 43.704C75.8821 43.5333 75.4875 43.448 75.0181 43.448H72.2341V47.768ZM85.3423 53.272C84.5849 53.272 83.8703 53.128 83.1983 52.84C82.5369 52.552 81.9503 52.152 81.4383 51.64C80.9369 51.1173 80.5423 50.52 80.2543 49.848C79.9663 49.176 79.8223 48.4507 79.8223 47.672C79.8223 46.8827 79.9609 46.1413 80.2383 45.448C80.5156 44.744 80.8996 44.1307 81.3903 43.608C81.8916 43.0853 82.4676 42.6747 83.1183 42.376C83.7689 42.0773 84.4623 41.928 85.1983 41.928C85.9663 41.928 86.6809 42.072 87.3423 42.36C88.0143 42.648 88.5956 43.0533 89.0863 43.576C89.5876 44.088 89.9823 44.6907 90.2703 45.384C90.5583 46.0773 90.7023 46.8187 90.7023 47.608C90.7023 48.3867 90.5583 49.1173 90.2703 49.8C89.9929 50.472 89.6089 51.0747 89.1183 51.608C88.6276 52.1307 88.0569 52.5413 87.4062 52.84C86.7663 53.128 86.0783 53.272 85.3423 53.272ZM85.2463 51.816C85.8009 51.816 86.3183 51.7093 86.7983 51.496C87.2889 51.2827 87.7156 50.984 88.0783 50.6C88.4409 50.2053 88.7236 49.7573 88.9263 49.256C89.1396 48.744 89.2463 48.1893 89.2463 47.592C89.2463 47.016 89.1396 46.4773 88.9263 45.976C88.7236 45.464 88.4356 45.016 88.0623 44.632C87.6996 44.2373 87.2783 43.928 86.7983 43.704C86.3183 43.48 85.8063 43.368 85.2623 43.368C84.7183 43.368 84.2063 43.48 83.7263 43.704C83.2463 43.928 82.8196 44.232 82.4463 44.616C82.0836 45 81.7956 45.448 81.5823 45.96C81.3796 46.472 81.2783 47.0213 81.2783 47.608C81.2783 48.184 81.3796 48.728 81.5823 49.24C81.7956 49.752 82.0836 50.2 82.4463 50.584C82.8196 50.968 83.2409 51.272 83.7103 51.496C84.1903 51.7093 84.7023 51.816 85.2463 51.816ZM99.5639 41.992C99.7025 41.992 99.8145 42.008 99.8999 42.04C99.9959 42.072 100.071 42.136 100.124 42.232C100.177 42.3173 100.204 42.4613 100.204 42.664C100.204 42.856 100.172 43 100.108 43.096C100.055 43.192 99.9799 43.256 99.8839 43.288C99.7879 43.3093 99.6705 43.32 99.5319 43.32H96.2199V52.456C96.2199 52.5947 96.1985 52.7173 96.1559 52.824C96.1239 52.9307 96.0545 53.0107 95.9479 53.064C95.8519 53.128 95.7025 53.16 95.4999 53.16C95.2865 53.16 95.1265 53.128 95.0199 53.064C94.9239 53.0107 94.8599 52.9307 94.8279 52.824C94.8065 52.7067 94.7959 52.5787 94.7959 52.44V43.32H91.4359C91.2972 43.32 91.1799 43.3093 91.0839 43.288C90.9879 43.256 90.9132 43.192 90.8599 43.096C90.8065 43 90.7799 42.856 90.7799 42.664C90.7799 42.4613 90.8012 42.3173 90.8439 42.232C90.8972 42.136 90.9719 42.072 91.0679 42.04C91.1745 42.008 91.2919 41.992 91.4199 41.992H99.5639ZM110.189 41.992C110.328 41.992 110.44 42.008 110.525 42.04C110.621 42.072 110.696 42.136 110.749 42.232C110.802 42.3173 110.829 42.4613 110.829 42.664C110.829 42.856 110.797 43 110.733 43.096C110.68 43.192 110.605 43.256 110.509 43.288C110.413 43.3093 110.296 43.32 110.157 43.32H106.845V52.456C106.845 52.5947 106.824 52.7173 106.781 52.824C106.749 52.9307 106.68 53.0107 106.573 53.064C106.477 53.128 106.328 53.16 106.125 53.16C105.912 53.16 105.752 53.128 105.645 53.064C105.549 53.0107 105.485 52.9307 105.453 52.824C105.432 52.7067 105.421 52.5787 105.421 52.44V43.32H102.061C101.922 43.32 101.805 43.3093 101.709 43.288C101.613 43.256 101.538 43.192 101.485 43.096C101.432 43 101.405 42.856 101.405 42.664C101.405 42.4613 101.426 42.3173 101.469 42.232C101.522 42.136 101.597 42.072 101.693 42.04C101.8 42.008 101.917 41.992 102.045 41.992H110.189ZM113.15 53.16C112.937 53.16 112.777 53.128 112.67 53.064C112.574 53.0107 112.51 52.9307 112.478 52.824C112.446 52.7067 112.43 52.5733 112.43 52.424V42.712C112.43 42.5627 112.446 42.4347 112.478 42.328C112.521 42.2213 112.59 42.1413 112.686 42.088C112.793 42.024 112.953 41.992 113.166 41.992C113.379 41.992 113.534 42.024 113.63 42.088C113.737 42.1413 113.801 42.2213 113.822 42.328C113.854 42.4347 113.87 42.568 113.87 42.728V52.44C113.87 52.5893 113.854 52.7173 113.822 52.824C113.79 52.9307 113.721 53.0107 113.614 53.064C113.518 53.128 113.363 53.16 113.15 53.16ZM54.336 68.32C53.9307 68.32 53.5467 68.272 53.184 68.176C52.832 68.08 52.5067 67.952 52.208 67.792C51.92 67.6213 51.664 67.4347 51.44 67.232C51.216 67.0293 51.04 66.8267 50.912 66.624C50.7947 66.4533 50.72 66.3147 50.688 66.208C50.656 66.0907 50.6613 65.9787 50.704 65.872C50.7573 65.7653 50.8587 65.648 51.008 65.52C51.1787 65.392 51.328 65.3333 51.456 65.344C51.584 65.344 51.7013 65.392 51.808 65.488C51.9253 65.584 52.0427 65.712 52.16 65.872C52.4267 66.2347 52.752 66.5013 53.136 66.672C53.52 66.832 53.8987 66.912 54.272 66.912C54.752 66.912 55.1787 66.848 55.552 66.72C55.9253 66.592 56.2187 66.4 56.432 66.144C56.656 65.8773 56.768 65.536 56.768 65.12C56.768 64.7787 56.6827 64.4907 56.512 64.256C56.3413 64.0213 56.112 63.824 55.824 63.664C55.536 63.4933 55.216 63.3493 54.864 63.232C54.512 63.104 54.1547 62.9813 53.792 62.864C53.504 62.768 53.2213 62.6613 52.944 62.544C52.6667 62.416 52.4053 62.2773 52.16 62.128C51.9147 61.968 51.696 61.7813 51.504 61.568C51.3227 61.3547 51.1787 61.104 51.072 60.816C50.976 60.528 50.928 60.192 50.928 59.808C50.928 59.2213 51.0667 58.704 51.344 58.256C51.632 57.808 52.032 57.4613 52.544 57.216C53.056 56.96 53.648 56.832 54.32 56.832C54.7147 56.832 55.0773 56.8693 55.408 56.944C55.7387 57.0187 56.032 57.12 56.288 57.248C56.544 57.3653 56.7627 57.4933 56.944 57.632C57.1253 57.76 57.264 57.8827 57.36 58C57.552 58.2027 57.6587 58.3733 57.68 58.512C57.7013 58.6507 57.6213 58.8213 57.44 59.024C57.2693 59.216 57.104 59.3173 56.944 59.328C56.784 59.3387 56.608 59.264 56.416 59.104C56.2133 58.8693 56 58.688 55.776 58.56C55.5627 58.432 55.3333 58.3467 55.088 58.304C54.8533 58.2507 54.592 58.224 54.304 58.224C54.0267 58.224 53.7653 58.2613 53.52 58.336C53.2853 58.4 53.0773 58.5013 52.896 58.64C52.7253 58.7787 52.592 58.9493 52.496 59.152C52.4 59.344 52.352 59.568 52.352 59.824C52.352 60.112 52.4267 60.3573 52.576 60.56C52.736 60.7627 52.944 60.9387 53.2 61.088C53.456 61.2267 53.744 61.3547 54.064 61.472C54.384 61.5787 54.72 61.6853 55.072 61.792C55.456 61.9093 55.8347 62.0533 56.208 62.224C56.5813 62.384 56.9173 62.5867 57.216 62.832C57.5147 63.0667 57.7547 63.3653 57.936 63.728C58.1173 64.0907 58.208 64.5387 58.208 65.072C58.208 65.6053 58.1013 66.0747 57.888 66.48C57.6853 66.8853 57.4027 67.2267 57.04 67.504C56.6773 67.7707 56.2613 67.9733 55.792 68.112C55.3333 68.2507 54.848 68.32 54.336 68.32ZM65.2434 68.192C64.6674 68.192 64.1074 68.1067 63.5634 67.936C63.0194 67.7653 62.5127 67.52 62.0434 67.2C61.574 66.88 61.158 66.4853 60.7954 66.016C60.4434 65.536 60.166 65.0027 59.9634 64.416C59.7607 63.8187 59.6594 63.1627 59.6594 62.448C59.6594 61.7653 59.7607 61.136 59.9634 60.56C60.166 59.9733 60.4434 59.456 60.7954 59.008C61.1474 58.56 61.558 58.1813 62.0274 57.872C62.5074 57.552 63.0194 57.312 63.5634 57.152C64.118 56.9813 64.6834 56.896 65.2594 56.896C65.7927 56.896 66.2514 56.9493 66.6354 57.056C67.0194 57.1627 67.334 57.28 67.5794 57.408C67.8247 57.5253 67.99 57.616 68.0754 57.68C68.2247 57.7653 68.3687 57.8667 68.5074 57.984C68.646 58.1013 68.7207 58.24 68.7314 58.4C68.7527 58.5173 68.742 58.6133 68.6994 58.688C68.6674 58.7627 68.6247 58.8427 68.5714 58.928C68.486 59.056 68.3954 59.152 68.2994 59.216C68.214 59.2693 68.118 59.296 68.0114 59.296C67.9047 59.296 67.8087 59.264 67.7234 59.2C67.638 59.136 67.526 59.0613 67.3874 58.976C67.3234 58.9333 67.1954 58.864 67.0034 58.768C66.8114 58.672 66.566 58.5813 66.2674 58.496C65.9687 58.4 65.606 58.352 65.1794 58.352C64.6354 58.352 64.1127 58.4533 63.6114 58.656C63.1207 58.848 62.6887 59.1253 62.3154 59.488C61.942 59.8507 61.6487 60.288 61.4354 60.8C61.222 61.312 61.1154 61.888 61.1154 62.528C61.1154 63.1787 61.222 63.7653 61.4354 64.288C61.6487 64.8 61.942 65.2373 62.3154 65.6C62.6994 65.9627 63.1367 66.24 63.6274 66.432C64.118 66.624 64.6354 66.72 65.1794 66.72C65.5847 66.72 65.9367 66.6773 66.2354 66.592C66.5447 66.5067 66.7954 66.416 66.9874 66.32C67.19 66.2133 67.3287 66.1333 67.4034 66.08C67.5207 66.016 67.622 65.952 67.7074 65.888C67.8034 65.824 67.9047 65.792 68.0114 65.792C68.118 65.792 68.214 65.824 68.2994 65.888C68.3954 65.9413 68.486 66.032 68.5714 66.16C68.6247 66.2347 68.6674 66.32 68.6994 66.416C68.742 66.5013 68.7527 66.5973 68.7314 66.704C68.7207 66.864 68.646 67.0027 68.5074 67.12C68.3687 67.2267 68.2247 67.328 68.0754 67.424C67.9794 67.4667 67.8087 67.5573 67.5634 67.696C67.3287 67.824 67.0194 67.936 66.6354 68.032C66.2514 68.1387 65.7874 68.192 65.2434 68.192ZM78.6193 68.16C78.4166 68.16 78.2619 68.128 78.1553 68.064C78.0593 68.0107 77.9953 67.9307 77.9633 67.824C77.9313 67.7067 77.9153 67.5733 77.9153 67.424V57.712C77.9153 57.5627 77.9313 57.4347 77.9633 57.328C77.9953 57.2213 78.0646 57.1413 78.1713 57.088C78.2779 57.024 78.4326 56.992 78.6353 56.992C78.8486 56.992 79.0033 57.024 79.0993 57.088C79.2059 57.1413 79.2753 57.2213 79.3073 57.328C79.3393 57.4347 79.3553 57.568 79.3553 57.728V67.44C79.3553 67.5893 79.3339 67.7173 79.2913 67.824C79.2593 67.9307 79.1899 68.0107 79.0833 68.064C78.9873 68.128 78.8326 68.16 78.6193 68.16ZM71.4193 68.16C71.2059 68.16 71.0459 68.128 70.9393 68.064C70.8433 68.0107 70.7793 67.9307 70.7473 67.824C70.7153 67.7067 70.6993 67.5733 70.6993 67.424V57.712C70.6993 57.5627 70.7153 57.4347 70.7473 57.328C70.7899 57.2213 70.8593 57.1413 70.9553 57.088C71.0619 57.024 71.2219 56.992 71.4353 56.992C71.6379 56.992 71.7873 57.024 71.8832 57.088C71.9899 57.1413 72.0593 57.2213 72.0913 57.328C72.1233 57.4347 72.1393 57.568 72.1393 57.728V67.44C72.1393 67.5893 72.1233 67.7173 72.0913 67.824C72.0593 67.9307 71.9899 68.0107 71.8832 68.064C71.7766 68.128 71.6219 68.16 71.4193 68.16ZM71.4833 63.104V61.76H78.1713L78.1553 63.104H71.4833ZM86.4516 68.272C85.6943 68.272 84.9796 68.128 84.3076 67.84C83.6463 67.552 83.0596 67.152 82.5476 66.64C82.0463 66.1173 81.6516 65.52 81.3636 64.848C81.0756 64.176 80.9316 63.4507 80.9316 62.672C80.9316 61.8827 81.0703 61.1413 81.3476 60.448C81.625 59.744 82.009 59.1307 82.4996 58.608C83.001 58.0853 83.577 57.6747 84.2276 57.376C84.8783 57.0773 85.5716 56.928 86.3076 56.928C87.0756 56.928 87.7903 57.072 88.4516 57.36C89.1236 57.648 89.705 58.0533 90.1956 58.576C90.697 59.088 91.0916 59.6907 91.3796 60.384C91.6676 61.0773 91.8116 61.8187 91.8116 62.608C91.8116 63.3867 91.6676 64.1173 91.3796 64.8C91.1023 65.472 90.7183 66.0747 90.2276 66.608C89.737 67.1307 89.1663 67.5413 88.5156 67.84C87.8756 68.128 87.1876 68.272 86.4516 68.272ZM86.3556 66.816C86.9103 66.816 87.4276 66.7093 87.9076 66.496C88.3983 66.2827 88.825 65.984 89.1876 65.6C89.5503 65.2053 89.833 64.7573 90.0356 64.256C90.249 63.744 90.3556 63.1893 90.3556 62.592C90.3556 62.016 90.249 61.4773 90.0356 60.976C89.833 60.464 89.545 60.016 89.1716 59.632C88.809 59.2373 88.3876 58.928 87.9076 58.704C87.4276 58.48 86.9156 58.368 86.3716 58.368C85.8276 58.368 85.3156 58.48 84.8356 58.704C84.3556 58.928 83.929 59.232 83.5556 59.616C83.193 60 82.905 60.448 82.6916 60.96C82.489 61.472 82.3876 62.0213 82.3876 62.608C82.3876 63.184 82.489 63.728 82.6916 64.24C82.905 64.752 83.193 65.2 83.5556 65.584C83.929 65.968 84.3503 66.272 84.8196 66.496C85.2996 66.7093 85.8116 66.816 86.3556 66.816ZM98.1704 68.272C97.413 68.272 96.6984 68.128 96.0264 67.84C95.365 67.552 94.7784 67.152 94.2664 66.64C93.765 66.1173 93.3704 65.52 93.0824 64.848C92.7944 64.176 92.6504 63.4507 92.6504 62.672C92.6504 61.8827 92.789 61.1413 93.0664 60.448C93.3437 59.744 93.7277 59.1307 94.2184 58.608C94.7197 58.0853 95.2957 57.6747 95.9464 57.376C96.597 57.0773 97.2904 56.928 98.0264 56.928C98.7944 56.928 99.509 57.072 100.17 57.36C100.842 57.648 101.424 58.0533 101.914 58.576C102.416 59.088 102.81 59.6907 103.098 60.384C103.386 61.0773 103.53 61.8187 103.53 62.608C103.53 63.3867 103.386 64.1173 103.098 64.8C102.821 65.472 102.437 66.0747 101.946 66.608C101.456 67.1307 100.885 67.5413 100.234 67.84C99.5944 68.128 98.9064 68.272 98.1704 68.272ZM98.0744 66.816C98.629 66.816 99.1464 66.7093 99.6264 66.496C100.117 66.2827 100.544 65.984 100.906 65.6C101.269 65.2053 101.552 64.7573 101.754 64.256C101.968 63.744 102.074 63.1893 102.074 62.592C102.074 62.016 101.968 61.4773 101.754 60.976C101.552 60.464 101.264 60.016 100.89 59.632C100.528 59.2373 100.106 58.928 99.6264 58.704C99.1464 58.48 98.6344 58.368 98.0904 58.368C97.5464 58.368 97.0344 58.48 96.5544 58.704C96.0744 58.928 95.6477 59.232 95.2744 59.616C94.9117 60 94.6237 60.448 94.4104 60.96C94.2077 61.472 94.1064 62.0213 94.1064 62.608C94.1064 63.184 94.2077 63.728 94.4104 64.24C94.6237 64.752 94.9117 65.2 95.2744 65.584C95.6477 65.968 96.069 66.272 96.5384 66.496C97.0184 66.7093 97.5304 66.816 98.0744 66.816ZM105.745 68.16C105.532 68.16 105.372 68.128 105.265 68.064C105.158 68.0107 105.084 67.9307 105.041 67.824C105.009 67.7173 104.993 67.5893 104.993 67.44V57.728C104.993 57.568 105.009 57.4347 105.041 57.328C105.073 57.2213 105.137 57.1413 105.233 57.088C105.34 57.024 105.5 56.992 105.713 56.992C105.926 56.992 106.081 57.024 106.177 57.088C106.284 57.1413 106.353 57.2213 106.385 57.328C106.417 57.4347 106.433 57.5627 106.433 57.712V66.816H111.793C111.932 66.816 112.049 66.832 112.145 66.864C112.241 66.896 112.316 66.96 112.369 67.056C112.433 67.152 112.465 67.296 112.465 67.488C112.465 67.6693 112.438 67.8133 112.385 67.92C112.332 68.016 112.257 68.08 112.161 68.112C112.065 68.144 111.948 68.16 111.809 68.16H105.745Z" fill="black"/>
<path d="M59.392 71.992C59.5307 71.992 59.6427 72.008 59.728 72.04C59.824 72.072 59.8987 72.136 59.952 72.232C60.0053 72.3173 60.032 72.4613 60.032 72.664C60.032 72.856 60 73 59.936 73.096C59.8827 73.192 59.808 73.256 59.712 73.288C59.616 73.3093 59.4987 73.32 59.36 73.32H56.048V82.456C56.048 82.5947 56.0267 82.7173 55.984 82.824C55.952 82.9307 55.8827 83.0107 55.776 83.064C55.68 83.128 55.5307 83.16 55.328 83.16C55.1147 83.16 54.9547 83.128 54.848 83.064C54.752 83.0107 54.688 82.9307 54.656 82.824C54.6347 82.7067 54.624 82.5787 54.624 82.44V73.32H51.264C51.1253 73.32 51.008 73.3093 50.912 73.288C50.816 73.256 50.7413 73.192 50.688 73.096C50.6347 73 50.608 72.856 50.608 72.664C50.608 72.4613 50.6293 72.3173 50.672 72.232C50.7253 72.136 50.8 72.072 50.896 72.04C51.0027 72.008 51.12 71.992 51.248 71.992H59.392ZM69.713 83.16C69.5103 83.16 69.3557 83.128 69.249 83.064C69.153 83.0107 69.089 82.9307 69.057 82.824C69.025 82.7067 69.009 82.5733 69.009 82.424V72.712C69.009 72.5627 69.025 72.4347 69.057 72.328C69.089 72.2213 69.1583 72.1413 69.265 72.088C69.3717 72.024 69.5263 71.992 69.729 71.992C69.9423 71.992 70.097 72.024 70.193 72.088C70.2997 72.1413 70.369 72.2213 70.401 72.328C70.433 72.4347 70.449 72.568 70.449 72.728V82.44C70.449 82.5893 70.4277 82.7173 70.385 82.824C70.353 82.9307 70.2837 83.0107 70.177 83.064C70.081 83.128 69.9263 83.16 69.713 83.16ZM62.513 83.16C62.2997 83.16 62.1397 83.128 62.033 83.064C61.937 83.0107 61.873 82.9307 61.841 82.824C61.809 82.7067 61.793 82.5733 61.793 82.424V72.712C61.793 72.5627 61.809 72.4347 61.841 72.328C61.8837 72.2213 61.953 72.1413 62.049 72.088C62.1557 72.024 62.3157 71.992 62.529 71.992C62.7317 71.992 62.881 72.024 62.977 72.088C63.0837 72.1413 63.153 72.2213 63.185 72.328C63.217 72.4347 63.233 72.568 63.233 72.728V82.44C63.233 82.5893 63.217 82.7173 63.185 82.824C63.153 82.9307 63.0837 83.0107 62.977 83.064C62.8703 83.128 62.7157 83.16 62.513 83.16ZM62.577 78.104V76.76H69.265L69.249 78.104H62.577ZM73.5454 83.16C73.332 83.16 73.172 83.128 73.0654 83.064C72.9694 83.0107 72.9054 82.9307 72.8734 82.824C72.8414 82.7067 72.8254 82.5733 72.8254 82.424V72.712C72.8254 72.4347 72.8787 72.248 72.9854 72.152C73.1027 72.0453 73.3054 71.992 73.5934 71.992H80.0254C80.1747 71.992 80.3027 72.008 80.4094 72.04C80.516 72.072 80.596 72.1413 80.6494 72.248C80.7027 72.3547 80.7294 72.5147 80.7294 72.728C80.7294 72.9413 80.6974 73.1013 80.6334 73.208C80.58 73.304 80.5 73.368 80.3934 73.4C80.2867 73.432 80.1587 73.448 80.0094 73.448H74.2654V76.76H78.2654C78.4147 76.76 78.5374 76.776 78.6334 76.808C78.74 76.84 78.82 76.904 78.8734 77C78.9267 77.096 78.9534 77.2453 78.9534 77.448C78.9534 77.64 78.9267 77.784 78.8734 77.88C78.82 77.976 78.74 78.04 78.6334 78.072C78.5267 78.0933 78.3934 78.104 78.2334 78.104H74.2654V81.72H80.0254C80.1747 81.72 80.3027 81.736 80.4094 81.768C80.516 81.8 80.596 81.8693 80.6494 81.976C80.7027 82.072 80.7294 82.2267 80.7294 82.44C80.7294 82.6533 80.6974 82.8133 80.6334 82.92C80.58 83.016 80.5 83.08 80.3934 83.112C80.2867 83.144 80.1587 83.16 80.0094 83.16H73.5454ZM55.936 98.272C55.1787 98.272 54.464 98.128 53.792 97.84C53.1307 97.552 52.544 97.152 52.032 96.64C51.5307 96.1173 51.136 95.52 50.848 94.848C50.56 94.176 50.416 93.4507 50.416 92.672C50.416 91.8827 50.5547 91.1413 50.832 90.448C51.1093 89.744 51.4933 89.1307 51.984 88.608C52.4853 88.0853 53.0613 87.6747 53.712 87.376C54.3627 87.0773 55.056 86.928 55.792 86.928C56.56 86.928 57.2747 87.072 57.936 87.36C58.608 87.648 59.1893 88.0533 59.68 88.576C60.1813 89.088 60.576 89.6907 60.864 90.384C61.152 91.0773 61.296 91.8187 61.296 92.608C61.296 93.3867 61.152 94.1173 60.864 94.8C60.5867 95.472 60.2027 96.0747 59.712 96.608C59.2213 97.1307 58.6507 97.5413 58 97.84C57.36 98.128 56.672 98.272 55.936 98.272ZM55.84 96.816C56.3947 96.816 56.912 96.7093 57.392 96.496C57.8827 96.2827 58.3093 95.984 58.672 95.6C59.0347 95.2053 59.3173 94.7573 59.52 94.256C59.7333 93.744 59.84 93.1893 59.84 92.592C59.84 92.016 59.7333 91.4773 59.52 90.976C59.3173 90.464 59.0293 90.016 58.656 89.632C58.2933 89.2373 57.872 88.928 57.392 88.704C56.912 88.48 56.4 88.368 55.856 88.368C55.312 88.368 54.8 88.48 54.32 88.704C53.84 88.928 53.4133 89.232 53.04 89.616C52.6773 90 52.3893 90.448 52.176 90.96C51.9733 91.472 51.872 92.0213 51.872 92.608C51.872 93.184 51.9733 93.728 52.176 94.24C52.3893 94.752 52.6773 95.2 53.04 95.584C53.4133 95.968 53.8347 96.272 54.304 96.496C54.784 96.7093 55.296 96.816 55.84 96.816ZM63.6388 98.16C63.4361 98.16 63.2814 98.128 63.1748 98.064C63.0681 98.0107 62.9988 97.9307 62.9668 97.824C62.9454 97.7067 62.9348 97.5733 62.9348 97.424V87.696C62.9348 87.5573 62.9508 87.44 62.9828 87.344C63.0254 87.2373 63.0948 87.152 63.1908 87.088C63.2974 87.024 63.4521 86.992 63.6548 86.992H67.1908C67.7134 86.992 68.1881 87.072 68.6148 87.232C69.0521 87.3813 69.4308 87.6053 69.7508 87.904C70.0708 88.2027 70.3161 88.5813 70.4868 89.04C70.6681 89.488 70.7587 90.0107 70.7587 90.608C70.7587 90.9813 70.7001 91.3707 70.5828 91.776C70.4654 92.1707 70.2841 92.544 70.0388 92.896C69.8041 93.248 69.5001 93.5413 69.1268 93.776C68.7534 94.0107 68.3001 94.144 67.7668 94.176H64.3748V97.44C64.3748 97.5893 64.3534 97.7173 64.3108 97.824C64.2788 97.9307 64.2094 98.0107 64.1028 98.064C64.0068 98.128 63.8521 98.16 63.6388 98.16ZM70.5028 97.984C70.2788 98.1333 70.0868 98.1813 69.9268 98.128C69.7774 98.0747 69.6334 97.9467 69.4948 97.744L66.9348 93.648L68.5188 93.408L70.7268 96.928C70.8334 97.0987 70.8974 97.2427 70.9188 97.36C70.9508 97.4773 70.9294 97.584 70.8548 97.68C70.7908 97.776 70.6734 97.8773 70.5028 97.984ZM64.3748 92.768H67.5428C67.7881 92.768 68.0174 92.7253 68.2308 92.64C68.4441 92.544 68.6308 92.4053 68.7908 92.224C68.9508 92.0427 69.0788 91.8187 69.1748 91.552C69.2708 91.2853 69.3188 90.9653 69.3188 90.592C69.3188 90.1333 69.2334 89.744 69.0628 89.424C68.9028 89.104 68.6628 88.864 68.3428 88.704C68.0228 88.5333 67.6281 88.448 67.1588 88.448H64.3748V92.768ZM73.4311 98.16C73.2178 98.16 73.0578 98.128 72.9511 98.064C72.8551 98.0107 72.7911 97.9307 72.7591 97.824C72.7271 97.7067 72.7111 97.5733 72.7111 97.424V87.712C72.7111 87.5627 72.7271 87.4347 72.7591 87.328C72.8018 87.2213 72.8711 87.1413 72.9671 87.088C73.0738 87.024 73.2338 86.992 73.4471 86.992C73.6605 86.992 73.8151 87.024 73.9111 87.088C74.0178 87.1413 74.0818 87.2213 74.1031 87.328C74.1351 87.4347 74.1511 87.568 74.1511 87.728V97.44C74.1511 97.5893 74.1351 97.7173 74.1031 97.824C74.0711 97.9307 74.0018 98.0107 73.8951 98.064C73.7991 98.128 73.6445 98.16 73.4311 98.16ZM81.4919 98.192C80.6599 98.192 79.9132 98.0587 79.2519 97.792C78.5905 97.5147 78.0199 97.1253 77.5399 96.624C77.0705 96.112 76.7079 95.4987 76.4519 94.784C76.1959 94.0693 76.0679 93.2747 76.0679 92.4C76.0679 91.568 76.1959 90.816 76.4519 90.144C76.7185 89.472 77.0972 88.896 77.5879 88.416C78.0785 87.936 78.6652 87.5627 79.3479 87.296C80.0305 87.0187 80.7985 86.8747 81.6519 86.864C81.9825 86.864 82.3185 86.896 82.6599 86.96C83.0119 87.024 83.3479 87.1147 83.6679 87.232C83.9879 87.3493 84.2759 87.488 84.5319 87.648C84.7132 87.7653 84.8679 87.888 84.9959 88.016C85.1239 88.1333 85.1932 88.256 85.2039 88.384C85.2145 88.448 85.2039 88.528 85.1719 88.624C85.1399 88.72 85.0972 88.8107 85.0439 88.896C84.9585 89.024 84.8625 89.12 84.7559 89.184C84.6599 89.2373 84.5639 89.264 84.4679 89.264C84.4252 89.264 84.3505 89.2373 84.2439 89.184C84.1372 89.1307 84.0039 89.0507 83.8439 88.944C83.6625 88.8373 83.4492 88.736 83.2039 88.64C82.9692 88.544 82.7132 88.4693 82.4359 88.416C82.1585 88.3627 81.8705 88.336 81.5719 88.336C80.7505 88.336 80.0359 88.5013 79.4279 88.832C78.8199 89.1627 78.3505 89.6373 78.0199 90.256C77.6999 90.8747 77.5345 91.6053 77.5239 92.448C77.5345 93.3227 77.7052 94.08 78.0359 94.72C78.3665 95.36 78.8305 95.856 79.4279 96.208C80.0359 96.56 80.7452 96.736 81.5559 96.736C81.8225 96.736 82.0945 96.7147 82.3719 96.672C82.6492 96.6293 82.9212 96.5707 83.1879 96.496C83.4652 96.4107 83.7212 96.3093 83.9559 96.192V93.104H81.1559C81.0172 93.104 80.8945 93.088 80.7879 93.056C80.6919 93.024 80.6172 92.96 80.5639 92.864C80.5212 92.768 80.4999 92.624 80.4999 92.432C80.4999 92.24 80.5265 92.096 80.5799 92C80.6332 91.904 80.7079 91.84 80.8039 91.808C80.8999 91.776 81.0172 91.76 81.1559 91.76H84.6279C84.8412 91.76 85.0012 91.7973 85.1079 91.872C85.2145 91.9467 85.2892 92.0427 85.3319 92.16C85.3852 92.2667 85.4119 92.4 85.4119 92.56V96.496C85.4119 96.6667 85.3159 96.848 85.1239 97.04C84.9425 97.2213 84.6812 97.392 84.3399 97.552C84.0945 97.68 83.8172 97.792 83.5079 97.888C83.2092 97.984 82.8892 98.0587 82.5479 98.112C82.2065 98.1653 81.8545 98.192 81.4919 98.192ZM88.228 98.16C88.0147 98.16 87.8547 98.128 87.748 98.064C87.652 98.0107 87.588 97.9307 87.556 97.824C87.524 97.7067 87.508 97.5733 87.508 97.424V87.712C87.508 87.5627 87.524 87.4347 87.556 87.328C87.5987 87.2213 87.668 87.1413 87.764 87.088C87.8707 87.024 88.0307 86.992 88.244 86.992C88.4573 86.992 88.612 87.024 88.708 87.088C88.8147 87.1413 88.8787 87.2213 88.9 87.328C88.932 87.4347 88.948 87.568 88.948 87.728V97.44C88.948 97.5893 88.932 97.7173 88.9 97.824C88.868 97.9307 88.7987 98.0107 88.692 98.064C88.596 98.128 88.4413 98.16 88.228 98.16ZM91.6968 98.16C91.5154 98.16 91.3714 98.128 91.2648 98.064C91.1688 98 91.0994 97.9147 91.0568 97.808C91.0248 97.6907 91.0088 97.5573 91.0088 97.408V87.664C91.0088 87.5253 91.0301 87.408 91.0728 87.312C91.1154 87.216 91.1901 87.1413 91.2968 87.088C91.4141 87.024 91.5741 86.992 91.7768 86.992C92.0114 86.992 92.1768 87.0133 92.2728 87.056C92.3688 87.0987 92.4648 87.1733 92.5608 87.28L98.5768 95.792V87.664C98.5768 87.5253 98.5928 87.408 98.6248 87.312C98.6674 87.216 98.7421 87.1413 98.8488 87.088C98.9554 87.024 99.1101 86.992 99.3128 86.992C99.5048 86.992 99.6488 87.024 99.7448 87.088C99.8514 87.152 99.9208 87.2427 99.9528 87.36C99.9954 87.4667 100.017 87.5893 100.017 87.728V97.424C100.017 97.5627 99.9901 97.6907 99.9368 97.808C99.8941 97.9147 99.8141 98 99.6968 98.064C99.5901 98.128 99.4354 98.16 99.2328 98.16C99.0621 98.16 98.9181 98.1387 98.8008 98.096C98.6941 98.0533 98.5928 97.9733 98.4968 97.856L92.4488 89.408V97.424C92.4488 97.5627 92.4274 97.6907 92.3848 97.808C92.3421 97.9147 92.2674 98 92.1608 98.064C92.0541 98.128 91.8994 98.16 91.6968 98.16ZM112.225 97.136C112.31 97.296 112.353 97.4347 112.353 97.552C112.364 97.6587 112.332 97.76 112.257 97.856C112.182 97.9413 112.065 98.0213 111.905 98.096C111.649 98.2133 111.446 98.24 111.297 98.176C111.158 98.112 111.03 97.9573 110.913 97.712L106.913 89.2L102.945 97.696C102.828 97.9413 102.694 98.096 102.545 98.16C102.406 98.224 102.204 98.1973 101.937 98.08C101.777 98.016 101.66 97.936 101.585 97.84C101.521 97.744 101.494 97.6267 101.505 97.488C101.526 97.3493 101.58 97.1893 101.665 97.008L106.257 87.424C106.321 87.296 106.412 87.1947 106.529 87.12C106.657 87.0347 106.79 86.992 106.929 86.992C107.025 86.992 107.116 87.008 107.201 87.04C107.286 87.072 107.361 87.12 107.425 87.184C107.489 87.248 107.542 87.3333 107.585 87.44L112.225 97.136ZM103.905 94.976L104.449 93.744H109.409L109.937 94.976H103.905ZM114.355 98.16C114.141 98.16 113.981 98.128 113.875 98.064C113.768 98.0107 113.693 97.9307 113.651 97.824C113.619 97.7173 113.603 97.5893 113.603 97.44V87.728C113.603 87.568 113.619 87.4347 113.651 87.328C113.683 87.2213 113.747 87.1413 113.843 87.088C113.949 87.024 114.109 86.992 114.323 86.992C114.536 86.992 114.691 87.024 114.787 87.088C114.893 87.1413 114.963 87.2213 114.995 87.328C115.027 87.4347 115.043 87.5627 115.043 87.712V96.816H120.403C120.541 96.816 120.659 96.832 120.755 96.864C120.851 96.896 120.925 96.96 120.979 97.056C121.043 97.152 121.075 97.296 121.075 97.488C121.075 97.6693 121.048 97.8133 120.995 97.92C120.941 98.016 120.867 98.08 120.771 98.112C120.675 98.144 120.557 98.16 120.419 98.16H114.355ZM60.928 112.136C61.0133 112.296 61.056 112.435 61.056 112.552C61.0667 112.659 61.0347 112.76 60.96 112.856C60.8853 112.941 60.768 113.021 60.608 113.096C60.352 113.213 60.1493 113.24 60 113.176C59.8613 113.112 59.7333 112.957 59.616 112.712L55.616 104.2L51.648 112.696C51.5307 112.941 51.3973 113.096 51.248 113.16C51.1093 113.224 50.9067 113.197 50.64 113.08C50.48 113.016 50.3627 112.936 50.288 112.84C50.224 112.744 50.1973 112.627 50.208 112.488C50.2293 112.349 50.2827 112.189 50.368 112.008L54.96 102.424C55.024 102.296 55.1147 102.195 55.232 102.12C55.36 102.035 55.4933 101.992 55.632 101.992C55.728 101.992 55.8187 102.008 55.904 102.04C55.9893 102.072 56.064 102.12 56.128 102.184C56.192 102.248 56.2453 102.333 56.288 102.44L60.928 112.136ZM52.608 109.976L53.152 108.744H58.112L58.64 109.976H52.608ZM63.1856 113.16C62.983 113.16 62.8283 113.128 62.7216 113.064C62.615 113.011 62.5456 112.931 62.5136 112.824C62.4923 112.707 62.4816 112.573 62.4816 112.424V102.696C62.4816 102.557 62.4976 102.44 62.5296 102.344C62.5723 102.237 62.6416 102.152 62.7376 102.088C62.8443 102.024 62.999 101.992 63.2016 101.992H66.7376C67.2603 101.992 67.735 102.072 68.1616 102.232C68.599 102.381 68.9776 102.605 69.2976 102.904C69.6176 103.203 69.863 103.581 70.0336 104.04C70.215 104.488 70.3056 105.011 70.3056 105.608C70.3056 105.981 70.247 106.371 70.1296 106.776C70.0123 107.171 69.831 107.544 69.5856 107.896C69.351 108.248 69.047 108.541 68.6736 108.776C68.3003 109.011 67.847 109.144 67.3136 109.176H63.9216V112.44C63.9216 112.589 63.9003 112.717 63.8576 112.824C63.8256 112.931 63.7563 113.011 63.6496 113.064C63.5536 113.128 63.399 113.16 63.1856 113.16ZM70.0496 112.984C69.8256 113.133 69.6336 113.181 69.4736 113.128C69.3243 113.075 69.1803 112.947 69.0416 112.744L66.4816 108.648L68.0656 108.408L70.2736 111.928C70.3803 112.099 70.4443 112.243 70.4656 112.36C70.4976 112.477 70.4763 112.584 70.4016 112.68C70.3376 112.776 70.2203 112.877 70.0496 112.984ZM63.9216 107.768H67.0896C67.335 107.768 67.5643 107.725 67.7776 107.64C67.991 107.544 68.1776 107.405 68.3376 107.224C68.4976 107.043 68.6256 106.819 68.7216 106.552C68.8176 106.285 68.8656 105.965 68.8656 105.592C68.8656 105.133 68.7803 104.744 68.6096 104.424C68.4496 104.104 68.2096 103.864 67.8896 103.704C67.5696 103.533 67.175 103.448 66.7056 103.448H63.9216V107.768ZM80.0014 101.992C80.14 101.992 80.252 102.008 80.3374 102.04C80.4334 102.072 80.508 102.136 80.5614 102.232C80.6147 102.317 80.6414 102.461 80.6414 102.664C80.6414 102.856 80.6094 103 80.5454 103.096C80.492 103.192 80.4174 103.256 80.3214 103.288C80.2254 103.309 80.108 103.32 79.9694 103.32H76.6574V112.456C76.6574 112.595 76.636 112.717 76.5934 112.824C76.5614 112.931 76.492 113.011 76.3854 113.064C76.2894 113.128 76.14 113.16 75.9374 113.16C75.724 113.16 75.564 113.128 75.4574 113.064C75.3614 113.011 75.2974 112.931 75.2654 112.824C75.244 112.707 75.2334 112.579 75.2334 112.44V103.32H71.8734C71.7347 103.32 71.6174 103.309 71.5214 103.288C71.4254 103.256 71.3507 103.192 71.2974 103.096C71.244 103 71.2174 102.856 71.2174 102.664C71.2174 102.461 71.2387 102.317 71.2814 102.232C71.3347 102.136 71.4094 102.072 71.5054 102.04C71.612 102.008 71.7294 101.992 71.8574 101.992H80.0014ZM54.336 128.32C53.9307 128.32 53.5467 128.272 53.184 128.176C52.832 128.08 52.5067 127.952 52.208 127.792C51.92 127.621 51.664 127.435 51.44 127.232C51.216 127.029 51.04 126.827 50.912 126.624C50.7947 126.453 50.72 126.315 50.688 126.208C50.656 126.091 50.6613 125.979 50.704 125.872C50.7573 125.765 50.8587 125.648 51.008 125.52C51.1787 125.392 51.328 125.333 51.456 125.344C51.584 125.344 51.7013 125.392 51.808 125.488C51.9253 125.584 52.0427 125.712 52.16 125.872C52.4267 126.235 52.752 126.501 53.136 126.672C53.52 126.832 53.8987 126.912 54.272 126.912C54.752 126.912 55.1787 126.848 55.552 126.72C55.9253 126.592 56.2187 126.4 56.432 126.144C56.656 125.877 56.768 125.536 56.768 125.12C56.768 124.779 56.6827 124.491 56.512 124.256C56.3413 124.021 56.112 123.824 55.824 123.664C55.536 123.493 55.216 123.349 54.864 123.232C54.512 123.104 54.1547 122.981 53.792 122.864C53.504 122.768 53.2213 122.661 52.944 122.544C52.6667 122.416 52.4053 122.277 52.16 122.128C51.9147 121.968 51.696 121.781 51.504 121.568C51.3227 121.355 51.1787 121.104 51.072 120.816C50.976 120.528 50.928 120.192 50.928 119.808C50.928 119.221 51.0667 118.704 51.344 118.256C51.632 117.808 52.032 117.461 52.544 117.216C53.056 116.96 53.648 116.832 54.32 116.832C54.7147 116.832 55.0773 116.869 55.408 116.944C55.7387 117.019 56.032 117.12 56.288 117.248C56.544 117.365 56.7627 117.493 56.944 117.632C57.1253 117.76 57.264 117.883 57.36 118C57.552 118.203 57.6587 118.373 57.68 118.512C57.7013 118.651 57.6213 118.821 57.44 119.024C57.2693 119.216 57.104 119.317 56.944 119.328C56.784 119.339 56.608 119.264 56.416 119.104C56.2133 118.869 56 118.688 55.776 118.56C55.5627 118.432 55.3333 118.347 55.088 118.304C54.8533 118.251 54.592 118.224 54.304 118.224C54.0267 118.224 53.7653 118.261 53.52 118.336C53.2853 118.4 53.0773 118.501 52.896 118.64C52.7253 118.779 52.592 118.949 52.496 119.152C52.4 119.344 52.352 119.568 52.352 119.824C52.352 120.112 52.4267 120.357 52.576 120.56C52.736 120.763 52.944 120.939 53.2 121.088C53.456 121.227 53.744 121.355 54.064 121.472C54.384 121.579 54.72 121.685 55.072 121.792C55.456 121.909 55.8347 122.053 56.208 122.224C56.5813 122.384 56.9173 122.587 57.216 122.832C57.5147 123.067 57.7547 123.365 57.936 123.728C58.1173 124.091 58.208 124.539 58.208 125.072C58.208 125.605 58.1013 126.075 57.888 126.48C57.6853 126.885 57.4027 127.227 57.04 127.504C56.6773 127.771 56.2613 127.973 55.792 128.112C55.3333 128.251 54.848 128.32 54.336 128.32ZM65.2434 128.192C64.6674 128.192 64.1074 128.107 63.5634 127.936C63.0194 127.765 62.5127 127.52 62.0434 127.2C61.574 126.88 61.158 126.485 60.7954 126.016C60.4434 125.536 60.166 125.003 59.9634 124.416C59.7607 123.819 59.6594 123.163 59.6594 122.448C59.6594 121.765 59.7607 121.136 59.9634 120.56C60.166 119.973 60.4434 119.456 60.7954 119.008C61.1474 118.56 61.558 118.181 62.0274 117.872C62.5074 117.552 63.0194 117.312 63.5634 117.152C64.118 116.981 64.6834 116.896 65.2594 116.896C65.7927 116.896 66.2514 116.949 66.6354 117.056C67.0194 117.163 67.334 117.28 67.5794 117.408C67.8247 117.525 67.99 117.616 68.0754 117.68C68.2247 117.765 68.3687 117.867 68.5074 117.984C68.646 118.101 68.7207 118.24 68.7314 118.4C68.7527 118.517 68.742 118.613 68.6994 118.688C68.6674 118.763 68.6247 118.843 68.5714 118.928C68.486 119.056 68.3954 119.152 68.2994 119.216C68.214 119.269 68.118 119.296 68.0114 119.296C67.9047 119.296 67.8087 119.264 67.7234 119.2C67.638 119.136 67.526 119.061 67.3874 118.976C67.3234 118.933 67.1954 118.864 67.0034 118.768C66.8114 118.672 66.566 118.581 66.2674 118.496C65.9687 118.4 65.606 118.352 65.1794 118.352C64.6354 118.352 64.1127 118.453 63.6114 118.656C63.1207 118.848 62.6887 119.125 62.3154 119.488C61.942 119.851 61.6487 120.288 61.4354 120.8C61.222 121.312 61.1154 121.888 61.1154 122.528C61.1154 123.179 61.222 123.765 61.4354 124.288C61.6487 124.8 61.942 125.237 62.3154 125.6C62.6994 125.963 63.1367 126.24 63.6274 126.432C64.118 126.624 64.6354 126.72 65.1794 126.72C65.5847 126.72 65.9367 126.677 66.2354 126.592C66.5447 126.507 66.7954 126.416 66.9874 126.32C67.19 126.213 67.3287 126.133 67.4034 126.08C67.5207 126.016 67.622 125.952 67.7074 125.888C67.8034 125.824 67.9047 125.792 68.0114 125.792C68.118 125.792 68.214 125.824 68.2994 125.888C68.3954 125.941 68.486 126.032 68.5714 126.16C68.6247 126.235 68.6674 126.32 68.6994 126.416C68.742 126.501 68.7527 126.597 68.7314 126.704C68.7207 126.864 68.646 127.003 68.5074 127.12C68.3687 127.227 68.2247 127.328 68.0754 127.424C67.9794 127.467 67.8087 127.557 67.5634 127.696C67.3287 127.824 67.0194 127.936 66.6354 128.032C66.2514 128.139 65.7874 128.192 65.2434 128.192ZM78.6193 128.16C78.4166 128.16 78.2619 128.128 78.1553 128.064C78.0593 128.011 77.9953 127.931 77.9633 127.824C77.9313 127.707 77.9153 127.573 77.9153 127.424V117.712C77.9153 117.563 77.9313 117.435 77.9633 117.328C77.9953 117.221 78.0646 117.141 78.1713 117.088C78.2779 117.024 78.4326 116.992 78.6353 116.992C78.8486 116.992 79.0033 117.024 79.0993 117.088C79.2059 117.141 79.2753 117.221 79.3073 117.328C79.3393 117.435 79.3553 117.568 79.3553 117.728V127.44C79.3553 127.589 79.3339 127.717 79.2913 127.824C79.2593 127.931 79.1899 128.011 79.0833 128.064C78.9873 128.128 78.8326 128.16 78.6193 128.16ZM71.4193 128.16C71.2059 128.16 71.0459 128.128 70.9393 128.064C70.8433 128.011 70.7793 127.931 70.7473 127.824C70.7153 127.707 70.6993 127.573 70.6993 127.424V117.712C70.6993 117.563 70.7153 117.435 70.7473 117.328C70.7899 117.221 70.8593 117.141 70.9553 117.088C71.0619 117.024 71.2219 116.992 71.4353 116.992C71.6379 116.992 71.7873 117.024 71.8832 117.088C71.9899 117.141 72.0593 117.221 72.0913 117.328C72.1233 117.435 72.1393 117.568 72.1393 117.728V127.44C72.1393 127.589 72.1233 127.717 72.0913 127.824C72.0593 127.931 71.9899 128.011 71.8832 128.064C71.7766 128.128 71.6219 128.16 71.4193 128.16ZM71.4833 123.104V121.76H78.1713L78.1553 123.104H71.4833ZM86.4516 128.272C85.6943 128.272 84.9796 128.128 84.3076 127.84C83.6463 127.552 83.0596 127.152 82.5476 126.64C82.0463 126.117 81.6516 125.52 81.3636 124.848C81.0756 124.176 80.9316 123.451 80.9316 122.672C80.9316 121.883 81.0703 121.141 81.3476 120.448C81.625 119.744 82.009 119.131 82.4996 118.608C83.001 118.085 83.577 117.675 84.2276 117.376C84.8783 117.077 85.5716 116.928 86.3076 116.928C87.0756 116.928 87.7903 117.072 88.4516 117.36C89.1236 117.648 89.705 118.053 90.1956 118.576C90.697 119.088 91.0916 119.691 91.3796 120.384C91.6676 121.077 91.8116 121.819 91.8116 122.608C91.8116 123.387 91.6676 124.117 91.3796 124.8C91.1023 125.472 90.7183 126.075 90.2276 126.608C89.737 127.131 89.1663 127.541 88.5156 127.84C87.8756 128.128 87.1876 128.272 86.4516 128.272ZM86.3556 126.816C86.9103 126.816 87.4276 126.709 87.9076 126.496C88.3983 126.283 88.825 125.984 89.1876 125.6C89.5503 125.205 89.833 124.757 90.0356 124.256C90.249 123.744 90.3556 123.189 90.3556 122.592C90.3556 122.016 90.249 121.477 90.0356 120.976C89.833 120.464 89.545 120.016 89.1716 119.632C88.809 119.237 88.3876 118.928 87.9076 118.704C87.4276 118.48 86.9156 118.368 86.3716 118.368C85.8276 118.368 85.3156 118.48 84.8356 118.704C84.3556 118.928 83.929 119.232 83.5556 119.616C83.193 120 82.905 120.448 82.6916 120.96C82.489 121.472 82.3876 122.021 82.3876 122.608C82.3876 123.184 82.489 123.728 82.6916 124.24C82.905 124.752 83.193 125.2 83.5556 125.584C83.929 125.968 84.3503 126.272 84.8196 126.496C85.2996 126.709 85.8116 126.816 86.3556 126.816ZM98.1704 128.272C97.413 128.272 96.6984 128.128 96.0264 127.84C95.365 127.552 94.7784 127.152 94.2664 126.64C93.765 126.117 93.3704 125.52 93.0824 124.848C92.7944 124.176 92.6504 123.451 92.6504 122.672C92.6504 121.883 92.789 121.141 93.0664 120.448C93.3437 119.744 93.7277 119.131 94.2184 118.608C94.7197 118.085 95.2957 117.675 95.9464 117.376C96.597 117.077 97.2904 116.928 98.0264 116.928C98.7944 116.928 99.509 117.072 100.17 117.36C100.842 117.648 101.424 118.053 101.914 118.576C102.416 119.088 102.81 119.691 103.098 120.384C103.386 121.077 103.53 121.819 103.53 122.608C103.53 123.387 103.386 124.117 103.098 124.8C102.821 125.472 102.437 126.075 101.946 126.608C101.456 127.131 100.885 127.541 100.234 127.84C99.5944 128.128 98.9064 128.272 98.1704 128.272ZM98.0744 126.816C98.629 126.816 99.1464 126.709 99.6264 126.496C100.117 126.283 100.544 125.984 100.906 125.6C101.269 125.205 101.552 124.757 101.754 124.256C101.968 123.744 102.074 123.189 102.074 122.592C102.074 122.016 101.968 121.477 101.754 120.976C101.552 120.464 101.264 120.016 100.89 119.632C100.528 119.237 100.106 118.928 99.6264 118.704C99.1464 118.48 98.6344 118.368 98.0904 118.368C97.5464 118.368 97.0344 118.48 96.5544 118.704C96.0744 118.928 95.6477 119.232 95.2744 119.616C94.9117 120 94.6237 120.448 94.4104 120.96C94.2077 121.472 94.1064 122.021 94.1064 122.608C94.1064 123.184 94.2077 123.728 94.4104 124.24C94.6237 124.752 94.9117 125.2 95.2744 125.584C95.6477 125.968 96.069 126.272 96.5384 126.496C97.0184 126.709 97.5304 126.816 98.0744 126.816ZM105.745 128.16C105.532 128.16 105.372 128.128 105.265 128.064C105.158 128.011 105.084 127.931 105.041 127.824C105.009 127.717 104.993 127.589 104.993 127.44V117.728C104.993 117.568 105.009 117.435 105.041 117.328C105.073 117.221 105.137 117.141 105.233 117.088C105.34 117.024 105.5 116.992 105.713 116.992C105.926 116.992 106.081 117.024 106.177 117.088C106.284 117.141 106.353 117.221 106.385 117.328C106.417 117.435 106.433 117.563 106.433 117.712V126.816H111.793C111.932 126.816 112.049 126.832 112.145 126.864C112.241 126.896 112.316 126.96 112.369 127.056C112.433 127.152 112.465 127.296 112.465 127.488C112.465 127.669 112.438 127.813 112.385 127.92C112.332 128.016 112.257 128.08 112.161 128.112C112.065 128.144 111.948 128.16 111.809 128.16H105.745Z" fill="white"/>
<circle cx="83" cy="83" r="82.5" transform="rotate(90 83 83)" stroke="#71A5B6"/>
<circle cx="27.5001" cy="22.5" r="2.5" fill="#71A5B6"/>
<circle cx="144.5" cy="138.5" r="2.5" fill="#71A5B6"/>
</svg>
