<svg width="135" height="135" viewBox="0 0 135 135" fill="none" xmlns="http://www.w3.org/2000/svg">
<circle cx="67.5" cy="67.5" r="67.5" fill="#83C2D5"/>
<path d="M35.808 37.16C35.6053 37.16 35.4507 37.128 35.344 37.064C35.248 37.0107 35.184 36.9307 35.152 36.824C35.12 36.7067 35.104 36.5733 35.104 36.424V26.712C35.104 26.5733 35.12 26.4507 35.152 26.344C35.1947 26.2373 35.2693 26.152 35.376 26.088C35.4827 26.024 35.632 25.992 35.824 25.992H39.328C39.84 25.992 40.3093 26.072 40.736 26.232C41.1733 26.3813 41.552 26.616 41.872 26.936C42.2027 27.2453 42.4587 27.624 42.64 28.072C42.8213 28.52 42.912 29.0373 42.912 29.624C42.912 30.2 42.8213 30.712 42.64 31.16C42.4587 31.608 42.2027 31.9867 41.872 32.296C41.5413 32.5947 41.1573 32.824 40.72 32.984C40.2933 33.144 39.824 33.224 39.312 33.224H36.56V36.44C36.56 36.5893 36.5387 36.7173 36.496 36.824C36.464 36.9307 36.3947 37.0107 36.288 37.064C36.192 37.128 36.032 37.16 35.808 37.16ZM36.56 31.768H39.328C39.7547 31.768 40.128 31.688 40.448 31.528C40.768 31.3573 41.0187 31.112 41.2 30.792C41.3813 30.4613 41.472 30.0613 41.472 29.592C41.472 29.144 41.3867 28.76 41.216 28.44C41.0453 28.12 40.7947 27.8747 40.464 27.704C40.144 27.5333 39.76 27.448 39.312 27.448H36.56V31.768ZM45.5454 37.16C45.332 37.16 45.172 37.128 45.0654 37.064C44.9694 37.0107 44.9054 36.9307 44.8734 36.824C44.8414 36.7067 44.8254 36.5733 44.8254 36.424V26.712C44.8254 26.4347 44.8787 26.248 44.9854 26.152C45.1027 26.0453 45.3054 25.992 45.5934 25.992H52.0254C52.1747 25.992 52.3027 26.008 52.4094 26.04C52.516 26.072 52.596 26.1413 52.6494 26.248C52.7027 26.3547 52.7294 26.5147 52.7294 26.728C52.7294 26.9413 52.6974 27.1013 52.6334 27.208C52.58 27.304 52.5 27.368 52.3934 27.4C52.2867 27.432 52.1587 27.448 52.0094 27.448H46.2654V30.76H50.2654C50.4147 30.76 50.5374 30.776 50.6334 30.808C50.74 30.84 50.82 30.904 50.8734 31C50.9267 31.096 50.9534 31.2453 50.9534 31.448C50.9534 31.64 50.9267 31.784 50.8734 31.88C50.82 31.976 50.74 32.04 50.6334 32.072C50.5267 32.0933 50.3934 32.104 50.2334 32.104H46.2654V35.72H52.0254C52.1747 35.72 52.3027 35.736 52.4094 35.768C52.516 35.8 52.596 35.8693 52.6494 35.976C52.7027 36.072 52.7294 36.2267 52.7294 36.44C52.7294 36.6533 52.6974 36.8133 52.6334 36.92C52.58 37.016 52.5 37.08 52.3934 37.112C52.2867 37.144 52.1587 37.16 52.0094 37.16H45.5454ZM55.4981 37.16C55.2955 37.16 55.1408 37.128 55.0341 37.064C54.9275 37.0107 54.8581 36.9307 54.8261 36.824C54.8048 36.7067 54.7941 36.5733 54.7941 36.424V26.696C54.7941 26.5573 54.8101 26.44 54.8421 26.344C54.8848 26.2373 54.9541 26.152 55.0501 26.088C55.1568 26.024 55.3115 25.992 55.5141 25.992H59.0501C59.5728 25.992 60.0475 26.072 60.4741 26.232C60.9115 26.3813 61.2901 26.6053 61.6101 26.904C61.9301 27.2027 62.1755 27.5813 62.3461 28.04C62.5275 28.488 62.6181 29.0107 62.6181 29.608C62.6181 29.9813 62.5595 30.3707 62.4421 30.776C62.3248 31.1707 62.1435 31.544 61.8981 31.896C61.6635 32.248 61.3595 32.5413 60.9861 32.776C60.6128 33.0107 60.1595 33.144 59.6261 33.176H56.2341V36.44C56.2341 36.5893 56.2128 36.7173 56.1701 36.824C56.1381 36.9307 56.0688 37.0107 55.9621 37.064C55.8661 37.128 55.7115 37.16 55.4981 37.16ZM62.3621 36.984C62.1381 37.1333 61.9461 37.1813 61.7861 37.128C61.6368 37.0747 61.4928 36.9467 61.3541 36.744L58.7941 32.648L60.3781 32.408L62.5861 35.928C62.6928 36.0987 62.7568 36.2427 62.7781 36.36C62.8101 36.4773 62.7888 36.584 62.7141 36.68C62.6501 36.776 62.5328 36.8773 62.3621 36.984ZM56.2341 31.768H59.4021C59.6475 31.768 59.8768 31.7253 60.0901 31.64C60.3035 31.544 60.4901 31.4053 60.6501 31.224C60.8101 31.0427 60.9381 30.8187 61.0341 30.552C61.1301 30.2853 61.1781 29.9653 61.1781 29.592C61.1781 29.1333 61.0928 28.744 60.9221 28.424C60.7621 28.104 60.5221 27.864 60.2021 27.704C59.8821 27.5333 59.4875 27.448 59.0181 27.448H56.2341V31.768ZM69.3423 37.272C68.5849 37.272 67.8703 37.128 67.1983 36.84C66.5369 36.552 65.9503 36.152 65.4383 35.64C64.9369 35.1173 64.5423 34.52 64.2543 33.848C63.9663 33.176 63.8223 32.4507 63.8223 31.672C63.8223 30.8827 63.9609 30.1413 64.2383 29.448C64.5156 28.744 64.8996 28.1307 65.3903 27.608C65.8916 27.0853 66.4676 26.6747 67.1183 26.376C67.7689 26.0773 68.4623 25.928 69.1983 25.928C69.9663 25.928 70.6809 26.072 71.3423 26.36C72.0143 26.648 72.5956 27.0533 73.0863 27.576C73.5876 28.088 73.9823 28.6907 74.2703 29.384C74.5583 30.0773 74.7023 30.8187 74.7023 31.608C74.7023 32.3867 74.5583 33.1173 74.2703 33.8C73.9929 34.472 73.6089 35.0747 73.1183 35.608C72.6276 36.1307 72.0569 36.5413 71.4062 36.84C70.7663 37.128 70.0783 37.272 69.3423 37.272ZM69.2463 35.816C69.8009 35.816 70.3183 35.7093 70.7983 35.496C71.2889 35.2827 71.7156 34.984 72.0783 34.6C72.4409 34.2053 72.7236 33.7573 72.9263 33.256C73.1396 32.744 73.2463 32.1893 73.2463 31.592C73.2463 31.016 73.1396 30.4773 72.9263 29.976C72.7236 29.464 72.4356 29.016 72.0623 28.632C71.6996 28.2373 71.2783 27.928 70.7983 27.704C70.3183 27.48 69.8063 27.368 69.2623 27.368C68.7183 27.368 68.2063 27.48 67.7263 27.704C67.2463 27.928 66.8196 28.232 66.4463 28.616C66.0836 29 65.7956 29.448 65.5823 29.96C65.3796 30.472 65.2783 31.0213 65.2783 31.608C65.2783 32.184 65.3796 32.728 65.5823 33.24C65.7956 33.752 66.0836 34.2 66.4463 34.584C66.8196 34.968 67.2409 35.272 67.7103 35.496C68.1903 35.7093 68.7023 35.816 69.2463 35.816ZM83.5639 25.992C83.7025 25.992 83.8145 26.008 83.8999 26.04C83.9959 26.072 84.0705 26.136 84.1239 26.232C84.1772 26.3173 84.2039 26.4613 84.2039 26.664C84.2039 26.856 84.1719 27 84.1079 27.096C84.0545 27.192 83.9799 27.256 83.8839 27.288C83.7879 27.3093 83.6705 27.32 83.5319 27.32H80.2199V36.456C80.2199 36.5947 80.1985 36.7173 80.1559 36.824C80.1239 36.9307 80.0545 37.0107 79.9479 37.064C79.8519 37.128 79.7025 37.16 79.4999 37.16C79.2865 37.16 79.1265 37.128 79.0199 37.064C78.9239 37.0107 78.8599 36.9307 78.8279 36.824C78.8065 36.7067 78.7959 36.5787 78.7959 36.44V27.32H75.4359C75.2972 27.32 75.1799 27.3093 75.0839 27.288C74.9879 27.256 74.9132 27.192 74.8599 27.096C74.8065 27 74.7799 26.856 74.7799 26.664C74.7799 26.4613 74.8012 26.3173 74.8439 26.232C74.8972 26.136 74.9719 26.072 75.0679 26.04C75.1745 26.008 75.2919 25.992 75.4199 25.992H83.5639ZM94.1889 25.992C94.3275 25.992 94.4395 26.008 94.5249 26.04C94.6209 26.072 94.6955 26.136 94.7489 26.232C94.8022 26.3173 94.8289 26.4613 94.8289 26.664C94.8289 26.856 94.7969 27 94.7329 27.096C94.6795 27.192 94.6049 27.256 94.5089 27.288C94.4129 27.3093 94.2955 27.32 94.1569 27.32H90.8449V36.456C90.8449 36.5947 90.8235 36.7173 90.7809 36.824C90.7489 36.9307 90.6795 37.0107 90.5729 37.064C90.4769 37.128 90.3275 37.16 90.1249 37.16C89.9115 37.16 89.7515 37.128 89.6449 37.064C89.5489 37.0107 89.4849 36.9307 89.4529 36.824C89.4315 36.7067 89.4209 36.5787 89.4209 36.44V27.32H86.0609C85.9222 27.32 85.8049 27.3093 85.7089 27.288C85.6129 27.256 85.5382 27.192 85.4849 27.096C85.4315 27 85.4049 26.856 85.4049 26.664C85.4049 26.4613 85.4262 26.3173 85.4689 26.232C85.5222 26.136 85.5969 26.072 85.6929 26.04C85.7995 26.008 85.9169 25.992 86.0449 25.992H94.1889ZM97.1499 37.16C96.9365 37.16 96.7765 37.128 96.6699 37.064C96.5739 37.0107 96.5099 36.9307 96.4779 36.824C96.4459 36.7067 96.4299 36.5733 96.4299 36.424V26.712C96.4299 26.5627 96.4459 26.4347 96.4779 26.328C96.5205 26.2213 96.5899 26.1413 96.6859 26.088C96.7925 26.024 96.9525 25.992 97.1659 25.992C97.3792 25.992 97.5339 26.024 97.6299 26.088C97.7365 26.1413 97.8005 26.2213 97.8219 26.328C97.8539 26.4347 97.8699 26.568 97.8699 26.728V36.44C97.8699 36.5893 97.8539 36.7173 97.8219 36.824C97.7899 36.9307 97.7205 37.0107 97.6139 37.064C97.5179 37.128 97.3632 37.16 97.1499 37.16ZM38.336 52.32C37.9307 52.32 37.5467 52.272 37.184 52.176C36.832 52.08 36.5067 51.952 36.208 51.792C35.92 51.6213 35.664 51.4347 35.44 51.232C35.216 51.0293 35.04 50.8267 34.912 50.624C34.7947 50.4533 34.72 50.3147 34.688 50.208C34.656 50.0907 34.6613 49.9787 34.704 49.872C34.7573 49.7653 34.8587 49.648 35.008 49.52C35.1787 49.392 35.328 49.3333 35.456 49.344C35.584 49.344 35.7013 49.392 35.808 49.488C35.9253 49.584 36.0427 49.712 36.16 49.872C36.4267 50.2347 36.752 50.5013 37.136 50.672C37.52 50.832 37.8987 50.912 38.272 50.912C38.752 50.912 39.1787 50.848 39.552 50.72C39.9253 50.592 40.2187 50.4 40.432 50.144C40.656 49.8773 40.768 49.536 40.768 49.12C40.768 48.7787 40.6827 48.4907 40.512 48.256C40.3413 48.0213 40.112 47.824 39.824 47.664C39.536 47.4933 39.216 47.3493 38.864 47.232C38.512 47.104 38.1547 46.9813 37.792 46.864C37.504 46.768 37.2213 46.6613 36.944 46.544C36.6667 46.416 36.4053 46.2773 36.16 46.128C35.9147 45.968 35.696 45.7813 35.504 45.568C35.3227 45.3547 35.1787 45.104 35.072 44.816C34.976 44.528 34.928 44.192 34.928 43.808C34.928 43.2213 35.0667 42.704 35.344 42.256C35.632 41.808 36.032 41.4613 36.544 41.216C37.056 40.96 37.648 40.832 38.32 40.832C38.7147 40.832 39.0773 40.8693 39.408 40.944C39.7387 41.0187 40.032 41.12 40.288 41.248C40.544 41.3653 40.7627 41.4933 40.944 41.632C41.1253 41.76 41.264 41.8827 41.36 42C41.552 42.2027 41.6587 42.3733 41.68 42.512C41.7013 42.6507 41.6213 42.8213 41.44 43.024C41.2693 43.216 41.104 43.3173 40.944 43.328C40.784 43.3387 40.608 43.264 40.416 43.104C40.2133 42.8693 40 42.688 39.776 42.56C39.5627 42.432 39.3333 42.3467 39.088 42.304C38.8533 42.2507 38.592 42.224 38.304 42.224C38.0267 42.224 37.7653 42.2613 37.52 42.336C37.2853 42.4 37.0773 42.5013 36.896 42.64C36.7253 42.7787 36.592 42.9493 36.496 43.152C36.4 43.344 36.352 43.568 36.352 43.824C36.352 44.112 36.4267 44.3573 36.576 44.56C36.736 44.7627 36.944 44.9387 37.2 45.088C37.456 45.2267 37.744 45.3547 38.064 45.472C38.384 45.5787 38.72 45.6853 39.072 45.792C39.456 45.9093 39.8347 46.0533 40.208 46.224C40.5813 46.384 40.9173 46.5867 41.216 46.832C41.5147 47.0667 41.7547 47.3653 41.936 47.728C42.1173 48.0907 42.208 48.5387 42.208 49.072C42.208 49.6053 42.1013 50.0747 41.888 50.48C41.6853 50.8853 41.4027 51.2267 41.04 51.504C40.6773 51.7707 40.2613 51.9733 39.792 52.112C39.3333 52.2507 38.848 52.32 38.336 52.32ZM49.2434 52.192C48.6674 52.192 48.1074 52.1067 47.5634 51.936C47.0194 51.7653 46.5127 51.52 46.0434 51.2C45.574 50.88 45.158 50.4853 44.7954 50.016C44.4434 49.536 44.166 49.0027 43.9634 48.416C43.7607 47.8187 43.6594 47.1627 43.6594 46.448C43.6594 45.7653 43.7607 45.136 43.9634 44.56C44.166 43.9733 44.4434 43.456 44.7954 43.008C45.1474 42.56 45.558 42.1813 46.0274 41.872C46.5074 41.552 47.0194 41.312 47.5634 41.152C48.118 40.9813 48.6834 40.896 49.2594 40.896C49.7927 40.896 50.2514 40.9493 50.6354 41.056C51.0194 41.1627 51.334 41.28 51.5794 41.408C51.8247 41.5253 51.99 41.616 52.0754 41.68C52.2247 41.7653 52.3687 41.8667 52.5074 41.984C52.646 42.1013 52.7207 42.24 52.7314 42.4C52.7527 42.5173 52.742 42.6133 52.6994 42.688C52.6674 42.7627 52.6247 42.8427 52.5714 42.928C52.486 43.056 52.3954 43.152 52.2994 43.216C52.214 43.2693 52.118 43.296 52.0114 43.296C51.9047 43.296 51.8087 43.264 51.7234 43.2C51.638 43.136 51.526 43.0613 51.3874 42.976C51.3234 42.9333 51.1954 42.864 51.0034 42.768C50.8114 42.672 50.566 42.5813 50.2674 42.496C49.9687 42.4 49.606 42.352 49.1794 42.352C48.6354 42.352 48.1127 42.4533 47.6114 42.656C47.1207 42.848 46.6887 43.1253 46.3154 43.488C45.942 43.8507 45.6487 44.288 45.4354 44.8C45.222 45.312 45.1154 45.888 45.1154 46.528C45.1154 47.1787 45.222 47.7653 45.4354 48.288C45.6487 48.8 45.942 49.2373 46.3154 49.6C46.6994 49.9627 47.1367 50.24 47.6274 50.432C48.118 50.624 48.6354 50.72 49.1794 50.72C49.5847 50.72 49.9367 50.6773 50.2354 50.592C50.5447 50.5067 50.7954 50.416 50.9874 50.32C51.19 50.2133 51.3287 50.1333 51.4034 50.08C51.5207 50.016 51.622 49.952 51.7074 49.888C51.8034 49.824 51.9047 49.792 52.0114 49.792C52.118 49.792 52.214 49.824 52.2994 49.888C52.3954 49.9413 52.486 50.032 52.5714 50.16C52.6247 50.2347 52.6674 50.32 52.6994 50.416C52.742 50.5013 52.7527 50.5973 52.7314 50.704C52.7207 50.864 52.646 51.0027 52.5074 51.12C52.3687 51.2267 52.2247 51.328 52.0754 51.424C51.9794 51.4667 51.8087 51.5573 51.5634 51.696C51.3287 51.824 51.0194 51.936 50.6354 52.032C50.2514 52.1387 49.7874 52.192 49.2434 52.192ZM62.6193 52.16C62.4166 52.16 62.2619 52.128 62.1553 52.064C62.0593 52.0107 61.9953 51.9307 61.9633 51.824C61.9313 51.7067 61.9153 51.5733 61.9153 51.424V41.712C61.9153 41.5627 61.9313 41.4347 61.9633 41.328C61.9953 41.2213 62.0646 41.1413 62.1713 41.088C62.2779 41.024 62.4326 40.992 62.6353 40.992C62.8486 40.992 63.0033 41.024 63.0993 41.088C63.2059 41.1413 63.2753 41.2213 63.3073 41.328C63.3393 41.4347 63.3553 41.568 63.3553 41.728V51.44C63.3553 51.5893 63.3339 51.7173 63.2913 51.824C63.2593 51.9307 63.1899 52.0107 63.0833 52.064C62.9873 52.128 62.8326 52.16 62.6193 52.16ZM55.4193 52.16C55.2059 52.16 55.0459 52.128 54.9393 52.064C54.8433 52.0107 54.7793 51.9307 54.7473 51.824C54.7153 51.7067 54.6993 51.5733 54.6993 51.424V41.712C54.6993 41.5627 54.7153 41.4347 54.7473 41.328C54.7899 41.2213 54.8593 41.1413 54.9553 41.088C55.0619 41.024 55.2219 40.992 55.4353 40.992C55.6379 40.992 55.7873 41.024 55.8832 41.088C55.9899 41.1413 56.0593 41.2213 56.0913 41.328C56.1233 41.4347 56.1393 41.568 56.1393 41.728V51.44C56.1393 51.5893 56.1233 51.7173 56.0913 51.824C56.0593 51.9307 55.9899 52.0107 55.8832 52.064C55.7766 52.128 55.6219 52.16 55.4193 52.16ZM55.4833 47.104V45.76H62.1713L62.1553 47.104H55.4833ZM70.4516 52.272C69.6943 52.272 68.9796 52.128 68.3076 51.84C67.6463 51.552 67.0596 51.152 66.5476 50.64C66.0463 50.1173 65.6516 49.52 65.3636 48.848C65.0756 48.176 64.9316 47.4507 64.9316 46.672C64.9316 45.8827 65.0703 45.1413 65.3476 44.448C65.625 43.744 66.009 43.1307 66.4996 42.608C67.001 42.0853 67.577 41.6747 68.2276 41.376C68.8783 41.0773 69.5716 40.928 70.3076 40.928C71.0756 40.928 71.7903 41.072 72.4516 41.36C73.1236 41.648 73.705 42.0533 74.1956 42.576C74.697 43.088 75.0916 43.6907 75.3796 44.384C75.6676 45.0773 75.8116 45.8187 75.8116 46.608C75.8116 47.3867 75.6676 48.1173 75.3796 48.8C75.1023 49.472 74.7183 50.0747 74.2276 50.608C73.737 51.1307 73.1663 51.5413 72.5156 51.84C71.8756 52.128 71.1876 52.272 70.4516 52.272ZM70.3556 50.816C70.9103 50.816 71.4276 50.7093 71.9076 50.496C72.3983 50.2827 72.825 49.984 73.1876 49.6C73.5503 49.2053 73.833 48.7573 74.0356 48.256C74.249 47.744 74.3556 47.1893 74.3556 46.592C74.3556 46.016 74.249 45.4773 74.0356 44.976C73.833 44.464 73.545 44.016 73.1716 43.632C72.809 43.2373 72.3876 42.928 71.9076 42.704C71.4276 42.48 70.9156 42.368 70.3716 42.368C69.8276 42.368 69.3156 42.48 68.8356 42.704C68.3556 42.928 67.929 43.232 67.5556 43.616C67.193 44 66.905 44.448 66.6916 44.96C66.489 45.472 66.3876 46.0213 66.3876 46.608C66.3876 47.184 66.489 47.728 66.6916 48.24C66.905 48.752 67.193 49.2 67.5556 49.584C67.929 49.968 68.3503 50.272 68.8196 50.496C69.2996 50.7093 69.8116 50.816 70.3556 50.816ZM82.1704 52.272C81.413 52.272 80.6984 52.128 80.0264 51.84C79.365 51.552 78.7784 51.152 78.2664 50.64C77.765 50.1173 77.3704 49.52 77.0824 48.848C76.7944 48.176 76.6504 47.4507 76.6504 46.672C76.6504 45.8827 76.789 45.1413 77.0664 44.448C77.3437 43.744 77.7277 43.1307 78.2184 42.608C78.7197 42.0853 79.2957 41.6747 79.9464 41.376C80.597 41.0773 81.2904 40.928 82.0264 40.928C82.7944 40.928 83.509 41.072 84.1704 41.36C84.8424 41.648 85.4237 42.0533 85.9144 42.576C86.4157 43.088 86.8104 43.6907 87.0984 44.384C87.3864 45.0773 87.5304 45.8187 87.5304 46.608C87.5304 47.3867 87.3864 48.1173 87.0984 48.8C86.821 49.472 86.437 50.0747 85.9464 50.608C85.4557 51.1307 84.885 51.5413 84.2344 51.84C83.5944 52.128 82.9064 52.272 82.1704 52.272ZM82.0744 50.816C82.629 50.816 83.1464 50.7093 83.6264 50.496C84.117 50.2827 84.5437 49.984 84.9064 49.6C85.269 49.2053 85.5517 48.7573 85.7544 48.256C85.9677 47.744 86.0744 47.1893 86.0744 46.592C86.0744 46.016 85.9677 45.4773 85.7544 44.976C85.5517 44.464 85.2637 44.016 84.8904 43.632C84.5277 43.2373 84.1064 42.928 83.6264 42.704C83.1464 42.48 82.6344 42.368 82.0904 42.368C81.5464 42.368 81.0344 42.48 80.5544 42.704C80.0744 42.928 79.6477 43.232 79.2744 43.616C78.9117 44 78.6237 44.448 78.4104 44.96C78.2077 45.472 78.1064 46.0213 78.1064 46.608C78.1064 47.184 78.2077 47.728 78.4104 48.24C78.6237 48.752 78.9117 49.2 79.2744 49.584C79.6477 49.968 80.069 50.272 80.5384 50.496C81.0184 50.7093 81.5304 50.816 82.0744 50.816ZM89.7451 52.16C89.5318 52.16 89.3718 52.128 89.2651 52.064C89.1585 52.0107 89.0838 51.9307 89.0411 51.824C89.0091 51.7173 88.9931 51.5893 88.9931 51.44V41.728C88.9931 41.568 89.0091 41.4347 89.0411 41.328C89.0731 41.2213 89.1371 41.1413 89.2331 41.088C89.3398 41.024 89.4998 40.992 89.7131 40.992C89.9265 40.992 90.0811 41.024 90.1771 41.088C90.2838 41.1413 90.3531 41.2213 90.3851 41.328C90.4171 41.4347 90.4331 41.5627 90.4331 41.712V50.816H95.7931C95.9318 50.816 96.0491 50.832 96.1451 50.864C96.2411 50.896 96.3158 50.96 96.3691 51.056C96.4331 51.152 96.4651 51.296 96.4651 51.488C96.4651 51.6693 96.4385 51.8133 96.3851 51.92C96.3318 52.016 96.2571 52.08 96.1611 52.112C96.0651 52.144 95.9478 52.16 95.8091 52.16H89.7451Z" fill="black"/>
<path d="M43.392 55.992C43.5307 55.992 43.6427 56.008 43.728 56.04C43.824 56.072 43.8987 56.136 43.952 56.232C44.0053 56.3173 44.032 56.4613 44.032 56.664C44.032 56.856 44 57 43.936 57.096C43.8827 57.192 43.808 57.256 43.712 57.288C43.616 57.3093 43.4987 57.32 43.36 57.32H40.048V66.456C40.048 66.5947 40.0267 66.7173 39.984 66.824C39.952 66.9307 39.8827 67.0107 39.776 67.064C39.68 67.128 39.5307 67.16 39.328 67.16C39.1147 67.16 38.9547 67.128 38.848 67.064C38.752 67.0107 38.688 66.9307 38.656 66.824C38.6347 66.7067 38.624 66.5787 38.624 66.44V57.32H35.264C35.1253 57.32 35.008 57.3093 34.912 57.288C34.816 57.256 34.7413 57.192 34.688 57.096C34.6347 57 34.608 56.856 34.608 56.664C34.608 56.4613 34.6293 56.3173 34.672 56.232C34.7253 56.136 34.8 56.072 34.896 56.04C35.0027 56.008 35.12 55.992 35.248 55.992H43.392ZM53.713 67.16C53.5103 67.16 53.3557 67.128 53.249 67.064C53.153 67.0107 53.089 66.9307 53.057 66.824C53.025 66.7067 53.009 66.5733 53.009 66.424V56.712C53.009 56.5627 53.025 56.4347 53.057 56.328C53.089 56.2213 53.1583 56.1413 53.265 56.088C53.3717 56.024 53.5263 55.992 53.729 55.992C53.9423 55.992 54.097 56.024 54.193 56.088C54.2997 56.1413 54.369 56.2213 54.401 56.328C54.433 56.4347 54.449 56.568 54.449 56.728V66.44C54.449 66.5893 54.4277 66.7173 54.385 66.824C54.353 66.9307 54.2837 67.0107 54.177 67.064C54.081 67.128 53.9263 67.16 53.713 67.16ZM46.513 67.16C46.2997 67.16 46.1397 67.128 46.033 67.064C45.937 67.0107 45.873 66.9307 45.841 66.824C45.809 66.7067 45.793 66.5733 45.793 66.424V56.712C45.793 56.5627 45.809 56.4347 45.841 56.328C45.8837 56.2213 45.953 56.1413 46.049 56.088C46.1557 56.024 46.3157 55.992 46.529 55.992C46.7317 55.992 46.881 56.024 46.977 56.088C47.0837 56.1413 47.153 56.2213 47.185 56.328C47.217 56.4347 47.233 56.568 47.233 56.728V66.44C47.233 66.5893 47.217 66.7173 47.185 66.824C47.153 66.9307 47.0837 67.0107 46.977 67.064C46.8703 67.128 46.7157 67.16 46.513 67.16ZM46.577 62.104V60.76H53.265L53.249 62.104H46.577ZM57.5454 67.16C57.332 67.16 57.172 67.128 57.0654 67.064C56.9694 67.0107 56.9054 66.9307 56.8734 66.824C56.8414 66.7067 56.8254 66.5733 56.8254 66.424V56.712C56.8254 56.4347 56.8787 56.248 56.9854 56.152C57.1027 56.0453 57.3054 55.992 57.5934 55.992H64.0254C64.1747 55.992 64.3027 56.008 64.4094 56.04C64.516 56.072 64.596 56.1413 64.6494 56.248C64.7027 56.3547 64.7294 56.5147 64.7294 56.728C64.7294 56.9413 64.6974 57.1013 64.6334 57.208C64.58 57.304 64.5 57.368 64.3934 57.4C64.2867 57.432 64.1587 57.448 64.0094 57.448H58.2654V60.76H62.2654C62.4147 60.76 62.5374 60.776 62.6334 60.808C62.74 60.84 62.82 60.904 62.8734 61C62.9267 61.096 62.9534 61.2453 62.9534 61.448C62.9534 61.64 62.9267 61.784 62.8734 61.88C62.82 61.976 62.74 62.04 62.6334 62.072C62.5267 62.0933 62.3934 62.104 62.2334 62.104H58.2654V65.72H64.0254C64.1747 65.72 64.3027 65.736 64.4094 65.768C64.516 65.8 64.596 65.8693 64.6494 65.976C64.7027 66.072 64.7294 66.2267 64.7294 66.44C64.7294 66.6533 64.6974 66.8133 64.6334 66.92C64.58 67.016 64.5 67.08 64.3934 67.112C64.2867 67.144 64.1587 67.16 64.0094 67.16H57.5454ZM39.936 82.272C39.1787 82.272 38.464 82.128 37.792 81.84C37.1307 81.552 36.544 81.152 36.032 80.64C35.5307 80.1173 35.136 79.52 34.848 78.848C34.56 78.176 34.416 77.4507 34.416 76.672C34.416 75.8827 34.5547 75.1413 34.832 74.448C35.1093 73.744 35.4933 73.1307 35.984 72.608C36.4853 72.0853 37.0613 71.6747 37.712 71.376C38.3627 71.0773 39.056 70.928 39.792 70.928C40.56 70.928 41.2747 71.072 41.936 71.36C42.608 71.648 43.1893 72.0533 43.68 72.576C44.1813 73.088 44.576 73.6907 44.864 74.384C45.152 75.0773 45.296 75.8187 45.296 76.608C45.296 77.3867 45.152 78.1173 44.864 78.8C44.5867 79.472 44.2027 80.0747 43.712 80.608C43.2213 81.1307 42.6507 81.5413 42 81.84C41.36 82.128 40.672 82.272 39.936 82.272ZM39.84 80.816C40.3947 80.816 40.912 80.7093 41.392 80.496C41.8827 80.2827 42.3093 79.984 42.672 79.6C43.0347 79.2053 43.3173 78.7573 43.52 78.256C43.7333 77.744 43.84 77.1893 43.84 76.592C43.84 76.016 43.7333 75.4773 43.52 74.976C43.3173 74.464 43.0293 74.016 42.656 73.632C42.2933 73.2373 41.872 72.928 41.392 72.704C40.912 72.48 40.4 72.368 39.856 72.368C39.312 72.368 38.8 72.48 38.32 72.704C37.84 72.928 37.4133 73.232 37.04 73.616C36.6773 74 36.3893 74.448 36.176 74.96C35.9733 75.472 35.872 76.0213 35.872 76.608C35.872 77.184 35.9733 77.728 36.176 78.24C36.3893 78.752 36.6773 79.2 37.04 79.584C37.4133 79.968 37.8347 80.272 38.304 80.496C38.784 80.7093 39.296 80.816 39.84 80.816ZM47.6388 82.16C47.4361 82.16 47.2814 82.128 47.1748 82.064C47.0681 82.0107 46.9988 81.9307 46.9668 81.824C46.9454 81.7067 46.9348 81.5733 46.9348 81.424V71.696C46.9348 71.5573 46.9508 71.44 46.9828 71.344C47.0254 71.2373 47.0948 71.152 47.1908 71.088C47.2974 71.024 47.4521 70.992 47.6548 70.992H51.1908C51.7134 70.992 52.1881 71.072 52.6148 71.232C53.0521 71.3813 53.4308 71.6053 53.7508 71.904C54.0708 72.2027 54.3161 72.5813 54.4868 73.04C54.6681 73.488 54.7587 74.0107 54.7587 74.608C54.7587 74.9813 54.7001 75.3707 54.5828 75.776C54.4654 76.1707 54.2841 76.544 54.0388 76.896C53.8041 77.248 53.5001 77.5413 53.1268 77.776C52.7534 78.0107 52.3001 78.144 51.7668 78.176H48.3748V81.44C48.3748 81.5893 48.3534 81.7173 48.3108 81.824C48.2788 81.9307 48.2094 82.0107 48.1028 82.064C48.0068 82.128 47.8521 82.16 47.6388 82.16ZM54.5028 81.984C54.2788 82.1333 54.0868 82.1813 53.9268 82.128C53.7774 82.0747 53.6334 81.9467 53.4948 81.744L50.9348 77.648L52.5188 77.408L54.7268 80.928C54.8334 81.0987 54.8974 81.2427 54.9188 81.36C54.9508 81.4773 54.9294 81.584 54.8548 81.68C54.7908 81.776 54.6734 81.8773 54.5028 81.984ZM48.3748 76.768H51.5428C51.7881 76.768 52.0174 76.7253 52.2308 76.64C52.4441 76.544 52.6308 76.4053 52.7908 76.224C52.9508 76.0427 53.0788 75.8187 53.1748 75.552C53.2708 75.2853 53.3188 74.9653 53.3188 74.592C53.3188 74.1333 53.2334 73.744 53.0628 73.424C52.9028 73.104 52.6628 72.864 52.3428 72.704C52.0228 72.5333 51.6281 72.448 51.1588 72.448H48.3748V76.768ZM57.4311 82.16C57.2178 82.16 57.0578 82.128 56.9511 82.064C56.8551 82.0107 56.7911 81.9307 56.7591 81.824C56.7271 81.7067 56.7111 81.5733 56.7111 81.424V71.712C56.7111 71.5627 56.7271 71.4347 56.7591 71.328C56.8018 71.2213 56.8711 71.1413 56.9671 71.088C57.0738 71.024 57.2338 70.992 57.4471 70.992C57.6605 70.992 57.8151 71.024 57.9111 71.088C58.0178 71.1413 58.0818 71.2213 58.1031 71.328C58.1351 71.4347 58.1511 71.568 58.1511 71.728V81.44C58.1511 81.5893 58.1351 81.7173 58.1031 81.824C58.0711 81.9307 58.0018 82.0107 57.8951 82.064C57.7991 82.128 57.6445 82.16 57.4311 82.16ZM65.4919 82.192C64.6599 82.192 63.9132 82.0587 63.2519 81.792C62.5905 81.5147 62.0199 81.1253 61.5399 80.624C61.0705 80.112 60.7079 79.4987 60.4519 78.784C60.1959 78.0693 60.0679 77.2747 60.0679 76.4C60.0679 75.568 60.1959 74.816 60.4519 74.144C60.7185 73.472 61.0972 72.896 61.5879 72.416C62.0785 71.936 62.6652 71.5627 63.3479 71.296C64.0305 71.0187 64.7985 70.8747 65.6519 70.864C65.9825 70.864 66.3185 70.896 66.6599 70.96C67.0119 71.024 67.3479 71.1147 67.6679 71.232C67.9879 71.3493 68.2759 71.488 68.5319 71.648C68.7132 71.7653 68.8679 71.888 68.9959 72.016C69.1239 72.1333 69.1932 72.256 69.2039 72.384C69.2145 72.448 69.2039 72.528 69.1719 72.624C69.1399 72.72 69.0972 72.8107 69.0439 72.896C68.9585 73.024 68.8625 73.12 68.7559 73.184C68.6599 73.2373 68.5639 73.264 68.4679 73.264C68.4252 73.264 68.3505 73.2373 68.2439 73.184C68.1372 73.1307 68.0039 73.0507 67.8439 72.944C67.6625 72.8373 67.4492 72.736 67.2039 72.64C66.9692 72.544 66.7132 72.4693 66.4359 72.416C66.1585 72.3627 65.8705 72.336 65.5719 72.336C64.7505 72.336 64.0359 72.5013 63.4279 72.832C62.8199 73.1627 62.3505 73.6373 62.0199 74.256C61.6999 74.8747 61.5345 75.6053 61.5239 76.448C61.5345 77.3227 61.7052 78.08 62.0359 78.72C62.3665 79.36 62.8305 79.856 63.4279 80.208C64.0359 80.56 64.7452 80.736 65.5559 80.736C65.8225 80.736 66.0945 80.7147 66.3719 80.672C66.6492 80.6293 66.9212 80.5707 67.1879 80.496C67.4652 80.4107 67.7212 80.3093 67.9559 80.192V77.104H65.1559C65.0172 77.104 64.8945 77.088 64.7879 77.056C64.6919 77.024 64.6172 76.96 64.5639 76.864C64.5212 76.768 64.4999 76.624 64.4999 76.432C64.4999 76.24 64.5265 76.096 64.5799 76C64.6332 75.904 64.7079 75.84 64.8039 75.808C64.8999 75.776 65.0172 75.76 65.1559 75.76H68.6279C68.8412 75.76 69.0012 75.7973 69.1079 75.872C69.2145 75.9467 69.2892 76.0427 69.3319 76.16C69.3852 76.2667 69.4119 76.4 69.4119 76.56V80.496C69.4119 80.6667 69.3159 80.848 69.1239 81.04C68.9425 81.2213 68.6812 81.392 68.3399 81.552C68.0945 81.68 67.8172 81.792 67.5079 81.888C67.2092 81.984 66.8892 82.0587 66.5479 82.112C66.2065 82.1653 65.8545 82.192 65.4919 82.192ZM72.228 82.16C72.0147 82.16 71.8547 82.128 71.748 82.064C71.652 82.0107 71.588 81.9307 71.556 81.824C71.524 81.7067 71.508 81.5733 71.508 81.424V71.712C71.508 71.5627 71.524 71.4347 71.556 71.328C71.5987 71.2213 71.668 71.1413 71.764 71.088C71.8707 71.024 72.0307 70.992 72.244 70.992C72.4573 70.992 72.612 71.024 72.708 71.088C72.8147 71.1413 72.8787 71.2213 72.9 71.328C72.932 71.4347 72.948 71.568 72.948 71.728V81.44C72.948 81.5893 72.932 81.7173 72.9 81.824C72.868 81.9307 72.7987 82.0107 72.692 82.064C72.596 82.128 72.4413 82.16 72.228 82.16ZM75.6968 82.16C75.5154 82.16 75.3714 82.128 75.2648 82.064C75.1688 82 75.0994 81.9147 75.0568 81.808C75.0248 81.6907 75.0088 81.5573 75.0088 81.408V71.664C75.0088 71.5253 75.0301 71.408 75.0728 71.312C75.1154 71.216 75.1901 71.1413 75.2968 71.088C75.4141 71.024 75.5741 70.992 75.7768 70.992C76.0114 70.992 76.1768 71.0133 76.2728 71.056C76.3688 71.0987 76.4648 71.1733 76.5608 71.28L82.5768 79.792V71.664C82.5768 71.5253 82.5928 71.408 82.6248 71.312C82.6674 71.216 82.7421 71.1413 82.8488 71.088C82.9554 71.024 83.1101 70.992 83.3128 70.992C83.5048 70.992 83.6488 71.024 83.7448 71.088C83.8514 71.152 83.9208 71.2427 83.9528 71.36C83.9954 71.4667 84.0168 71.5893 84.0168 71.728V81.424C84.0168 81.5627 83.9901 81.6907 83.9368 81.808C83.8941 81.9147 83.8141 82 83.6968 82.064C83.5901 82.128 83.4354 82.16 83.2328 82.16C83.0621 82.16 82.9181 82.1387 82.8008 82.096C82.6941 82.0533 82.5928 81.9733 82.4968 81.856L76.4488 73.408V81.424C76.4488 81.5627 76.4274 81.6907 76.3848 81.808C76.3421 81.9147 76.2674 82 76.1608 82.064C76.0541 82.128 75.8994 82.16 75.6968 82.16ZM96.2249 81.136C96.3102 81.296 96.3529 81.4347 96.3529 81.552C96.3635 81.6587 96.3315 81.76 96.2569 81.856C96.1822 81.9413 96.0649 82.0213 95.9049 82.096C95.6489 82.2133 95.4462 82.24 95.2969 82.176C95.1582 82.112 95.0302 81.9573 94.9129 81.712L90.9129 73.2L86.9449 81.696C86.8275 81.9413 86.6942 82.096 86.5449 82.16C86.4062 82.224 86.2035 82.1973 85.9369 82.08C85.7769 82.016 85.6595 81.936 85.5849 81.84C85.5209 81.744 85.4942 81.6267 85.5049 81.488C85.5262 81.3493 85.5795 81.1893 85.6649 81.008L90.2569 71.424C90.3209 71.296 90.4115 71.1947 90.5289 71.12C90.6569 71.0347 90.7902 70.992 90.9289 70.992C91.0249 70.992 91.1155 71.008 91.2009 71.04C91.2862 71.072 91.3609 71.12 91.4249 71.184C91.4889 71.248 91.5422 71.3333 91.5849 71.44L96.2249 81.136ZM87.9049 78.976L88.4489 77.744H93.4089L93.9369 78.976H87.9049ZM98.3545 82.16C98.1412 82.16 97.9812 82.128 97.8745 82.064C97.7678 82.0107 97.6932 81.9307 97.6505 81.824C97.6185 81.7173 97.6025 81.5893 97.6025 81.44V71.728C97.6025 71.568 97.6185 71.4347 97.6505 71.328C97.6825 71.2213 97.7465 71.1413 97.8425 71.088C97.9492 71.024 98.1092 70.992 98.3225 70.992C98.5358 70.992 98.6905 71.024 98.7865 71.088C98.8932 71.1413 98.9625 71.2213 98.9945 71.328C99.0265 71.4347 99.0425 71.5627 99.0425 71.712V80.816H104.403C104.541 80.816 104.659 80.832 104.755 80.864C104.851 80.896 104.925 80.96 104.979 81.056C105.043 81.152 105.075 81.296 105.075 81.488C105.075 81.6693 105.048 81.8133 104.995 81.92C104.941 82.016 104.867 82.08 104.771 82.112C104.675 82.144 104.557 82.16 104.419 82.16H98.3545ZM44.928 96.136C45.0133 96.296 45.056 96.4347 45.056 96.552C45.0667 96.6587 45.0347 96.76 44.96 96.856C44.8853 96.9413 44.768 97.0213 44.608 97.096C44.352 97.2133 44.1493 97.24 44 97.176C43.8613 97.112 43.7333 96.9573 43.616 96.712L39.616 88.2L35.648 96.696C35.5307 96.9413 35.3973 97.096 35.248 97.16C35.1093 97.224 34.9067 97.1973 34.64 97.08C34.48 97.016 34.3627 96.936 34.288 96.84C34.224 96.744 34.1973 96.6267 34.208 96.488C34.2293 96.3493 34.2827 96.1893 34.368 96.008L38.96 86.424C39.024 86.296 39.1147 86.1947 39.232 86.12C39.36 86.0347 39.4933 85.992 39.632 85.992C39.728 85.992 39.8187 86.008 39.904 86.04C39.9893 86.072 40.064 86.12 40.128 86.184C40.192 86.248 40.2453 86.3333 40.288 86.44L44.928 96.136ZM36.608 93.976L37.152 92.744H42.112L42.64 93.976H36.608ZM47.1856 97.16C46.983 97.16 46.8283 97.128 46.7216 97.064C46.615 97.0107 46.5456 96.9307 46.5136 96.824C46.4923 96.7067 46.4816 96.5733 46.4816 96.424V86.696C46.4816 86.5573 46.4976 86.44 46.5296 86.344C46.5723 86.2373 46.6416 86.152 46.7376 86.088C46.8443 86.024 46.999 85.992 47.2016 85.992H50.7376C51.2603 85.992 51.735 86.072 52.1616 86.232C52.599 86.3813 52.9776 86.6053 53.2976 86.904C53.6176 87.2027 53.863 87.5813 54.0336 88.04C54.215 88.488 54.3056 89.0107 54.3056 89.608C54.3056 89.9813 54.247 90.3707 54.1296 90.776C54.0123 91.1707 53.831 91.544 53.5856 91.896C53.351 92.248 53.047 92.5413 52.6736 92.776C52.3003 93.0107 51.847 93.144 51.3136 93.176H47.9216V96.44C47.9216 96.5893 47.9003 96.7173 47.8576 96.824C47.8256 96.9307 47.7563 97.0107 47.6496 97.064C47.5536 97.128 47.399 97.16 47.1856 97.16ZM54.0496 96.984C53.8256 97.1333 53.6336 97.1813 53.4736 97.128C53.3243 97.0747 53.1803 96.9467 53.0416 96.744L50.4816 92.648L52.0656 92.408L54.2736 95.928C54.3803 96.0987 54.4443 96.2427 54.4656 96.36C54.4976 96.4773 54.4763 96.584 54.4016 96.68C54.3376 96.776 54.2203 96.8773 54.0496 96.984ZM47.9216 91.768H51.0896C51.335 91.768 51.5643 91.7253 51.7776 91.64C51.991 91.544 52.1776 91.4053 52.3376 91.224C52.4976 91.0427 52.6256 90.8187 52.7216 90.552C52.8176 90.2853 52.8656 89.9653 52.8656 89.592C52.8656 89.1333 52.7803 88.744 52.6096 88.424C52.4496 88.104 52.2096 87.864 51.8896 87.704C51.5696 87.5333 51.175 87.448 50.7056 87.448H47.9216V91.768ZM64.0014 85.992C64.14 85.992 64.252 86.008 64.3374 86.04C64.4334 86.072 64.508 86.136 64.5614 86.232C64.6147 86.3173 64.6414 86.4613 64.6414 86.664C64.6414 86.856 64.6094 87 64.5454 87.096C64.492 87.192 64.4174 87.256 64.3214 87.288C64.2254 87.3093 64.108 87.32 63.9694 87.32H60.6574V96.456C60.6574 96.5947 60.636 96.7173 60.5934 96.824C60.5614 96.9307 60.492 97.0107 60.3854 97.064C60.2894 97.128 60.14 97.16 59.9374 97.16C59.724 97.16 59.564 97.128 59.4574 97.064C59.3614 97.0107 59.2974 96.9307 59.2654 96.824C59.244 96.7067 59.2334 96.5787 59.2334 96.44V87.32H55.8734C55.7347 87.32 55.6174 87.3093 55.5214 87.288C55.4254 87.256 55.3507 87.192 55.2974 87.096C55.244 87 55.2174 86.856 55.2174 86.664C55.2174 86.4613 55.2387 86.3173 55.2814 86.232C55.3347 86.136 55.4094 86.072 55.5054 86.04C55.612 86.008 55.7294 85.992 55.8574 85.992H64.0014ZM38.336 112.32C37.9307 112.32 37.5467 112.272 37.184 112.176C36.832 112.08 36.5067 111.952 36.208 111.792C35.92 111.621 35.664 111.435 35.44 111.232C35.216 111.029 35.04 110.827 34.912 110.624C34.7947 110.453 34.72 110.315 34.688 110.208C34.656 110.091 34.6613 109.979 34.704 109.872C34.7573 109.765 34.8587 109.648 35.008 109.52C35.1787 109.392 35.328 109.333 35.456 109.344C35.584 109.344 35.7013 109.392 35.808 109.488C35.9253 109.584 36.0427 109.712 36.16 109.872C36.4267 110.235 36.752 110.501 37.136 110.672C37.52 110.832 37.8987 110.912 38.272 110.912C38.752 110.912 39.1787 110.848 39.552 110.72C39.9253 110.592 40.2187 110.4 40.432 110.144C40.656 109.877 40.768 109.536 40.768 109.12C40.768 108.779 40.6827 108.491 40.512 108.256C40.3413 108.021 40.112 107.824 39.824 107.664C39.536 107.493 39.216 107.349 38.864 107.232C38.512 107.104 38.1547 106.981 37.792 106.864C37.504 106.768 37.2213 106.661 36.944 106.544C36.6667 106.416 36.4053 106.277 36.16 106.128C35.9147 105.968 35.696 105.781 35.504 105.568C35.3227 105.355 35.1787 105.104 35.072 104.816C34.976 104.528 34.928 104.192 34.928 103.808C34.928 103.221 35.0667 102.704 35.344 102.256C35.632 101.808 36.032 101.461 36.544 101.216C37.056 100.96 37.648 100.832 38.32 100.832C38.7147 100.832 39.0773 100.869 39.408 100.944C39.7387 101.019 40.032 101.12 40.288 101.248C40.544 101.365 40.7627 101.493 40.944 101.632C41.1253 101.76 41.264 101.883 41.36 102C41.552 102.203 41.6587 102.373 41.68 102.512C41.7013 102.651 41.6213 102.821 41.44 103.024C41.2693 103.216 41.104 103.317 40.944 103.328C40.784 103.339 40.608 103.264 40.416 103.104C40.2133 102.869 40 102.688 39.776 102.56C39.5627 102.432 39.3333 102.347 39.088 102.304C38.8533 102.251 38.592 102.224 38.304 102.224C38.0267 102.224 37.7653 102.261 37.52 102.336C37.2853 102.4 37.0773 102.501 36.896 102.64C36.7253 102.779 36.592 102.949 36.496 103.152C36.4 103.344 36.352 103.568 36.352 103.824C36.352 104.112 36.4267 104.357 36.576 104.56C36.736 104.763 36.944 104.939 37.2 105.088C37.456 105.227 37.744 105.355 38.064 105.472C38.384 105.579 38.72 105.685 39.072 105.792C39.456 105.909 39.8347 106.053 40.208 106.224C40.5813 106.384 40.9173 106.587 41.216 106.832C41.5147 107.067 41.7547 107.365 41.936 107.728C42.1173 108.091 42.208 108.539 42.208 109.072C42.208 109.605 42.1013 110.075 41.888 110.48C41.6853 110.885 41.4027 111.227 41.04 111.504C40.6773 111.771 40.2613 111.973 39.792 112.112C39.3333 112.251 38.848 112.32 38.336 112.32ZM49.2434 112.192C48.6674 112.192 48.1074 112.107 47.5634 111.936C47.0194 111.765 46.5127 111.52 46.0434 111.2C45.574 110.88 45.158 110.485 44.7954 110.016C44.4434 109.536 44.166 109.003 43.9634 108.416C43.7607 107.819 43.6594 107.163 43.6594 106.448C43.6594 105.765 43.7607 105.136 43.9634 104.56C44.166 103.973 44.4434 103.456 44.7954 103.008C45.1474 102.56 45.558 102.181 46.0274 101.872C46.5074 101.552 47.0194 101.312 47.5634 101.152C48.118 100.981 48.6834 100.896 49.2594 100.896C49.7927 100.896 50.2514 100.949 50.6354 101.056C51.0194 101.163 51.334 101.28 51.5794 101.408C51.8247 101.525 51.99 101.616 52.0754 101.68C52.2247 101.765 52.3687 101.867 52.5074 101.984C52.646 102.101 52.7207 102.24 52.7314 102.4C52.7527 102.517 52.742 102.613 52.6994 102.688C52.6674 102.763 52.6247 102.843 52.5714 102.928C52.486 103.056 52.3954 103.152 52.2994 103.216C52.214 103.269 52.118 103.296 52.0114 103.296C51.9047 103.296 51.8087 103.264 51.7234 103.2C51.638 103.136 51.526 103.061 51.3874 102.976C51.3234 102.933 51.1954 102.864 51.0034 102.768C50.8114 102.672 50.566 102.581 50.2674 102.496C49.9687 102.4 49.606 102.352 49.1794 102.352C48.6354 102.352 48.1127 102.453 47.6114 102.656C47.1207 102.848 46.6887 103.125 46.3154 103.488C45.942 103.851 45.6487 104.288 45.4354 104.8C45.222 105.312 45.1154 105.888 45.1154 106.528C45.1154 107.179 45.222 107.765 45.4354 108.288C45.6487 108.8 45.942 109.237 46.3154 109.6C46.6994 109.963 47.1367 110.24 47.6274 110.432C48.118 110.624 48.6354 110.72 49.1794 110.72C49.5847 110.72 49.9367 110.677 50.2354 110.592C50.5447 110.507 50.7954 110.416 50.9874 110.32C51.19 110.213 51.3287 110.133 51.4034 110.08C51.5207 110.016 51.622 109.952 51.7074 109.888C51.8034 109.824 51.9047 109.792 52.0114 109.792C52.118 109.792 52.214 109.824 52.2994 109.888C52.3954 109.941 52.486 110.032 52.5714 110.16C52.6247 110.235 52.6674 110.32 52.6994 110.416C52.742 110.501 52.7527 110.597 52.7314 110.704C52.7207 110.864 52.646 111.003 52.5074 111.12C52.3687 111.227 52.2247 111.328 52.0754 111.424C51.9794 111.467 51.8087 111.557 51.5634 111.696C51.3287 111.824 51.0194 111.936 50.6354 112.032C50.2514 112.139 49.7874 112.192 49.2434 112.192ZM62.6193 112.16C62.4166 112.16 62.2619 112.128 62.1553 112.064C62.0593 112.011 61.9953 111.931 61.9633 111.824C61.9313 111.707 61.9153 111.573 61.9153 111.424V101.712C61.9153 101.563 61.9313 101.435 61.9633 101.328C61.9953 101.221 62.0646 101.141 62.1713 101.088C62.2779 101.024 62.4326 100.992 62.6353 100.992C62.8486 100.992 63.0033 101.024 63.0993 101.088C63.2059 101.141 63.2753 101.221 63.3073 101.328C63.3393 101.435 63.3553 101.568 63.3553 101.728V111.44C63.3553 111.589 63.3339 111.717 63.2913 111.824C63.2593 111.931 63.1899 112.011 63.0833 112.064C62.9873 112.128 62.8326 112.16 62.6193 112.16ZM55.4193 112.16C55.2059 112.16 55.0459 112.128 54.9393 112.064C54.8433 112.011 54.7793 111.931 54.7473 111.824C54.7153 111.707 54.6993 111.573 54.6993 111.424V101.712C54.6993 101.563 54.7153 101.435 54.7473 101.328C54.7899 101.221 54.8593 101.141 54.9553 101.088C55.0619 101.024 55.2219 100.992 55.4353 100.992C55.6379 100.992 55.7873 101.024 55.8832 101.088C55.9899 101.141 56.0593 101.221 56.0913 101.328C56.1233 101.435 56.1393 101.568 56.1393 101.728V111.44C56.1393 111.589 56.1233 111.717 56.0913 111.824C56.0593 111.931 55.9899 112.011 55.8832 112.064C55.7766 112.128 55.6219 112.16 55.4193 112.16ZM55.4833 107.104V105.76H62.1713L62.1553 107.104H55.4833ZM70.4516 112.272C69.6943 112.272 68.9796 112.128 68.3076 111.84C67.6463 111.552 67.0596 111.152 66.5476 110.64C66.0463 110.117 65.6516 109.52 65.3636 108.848C65.0756 108.176 64.9316 107.451 64.9316 106.672C64.9316 105.883 65.0703 105.141 65.3476 104.448C65.625 103.744 66.009 103.131 66.4996 102.608C67.001 102.085 67.577 101.675 68.2276 101.376C68.8783 101.077 69.5716 100.928 70.3076 100.928C71.0756 100.928 71.7903 101.072 72.4516 101.36C73.1236 101.648 73.705 102.053 74.1956 102.576C74.697 103.088 75.0916 103.691 75.3796 104.384C75.6676 105.077 75.8116 105.819 75.8116 106.608C75.8116 107.387 75.6676 108.117 75.3796 108.8C75.1023 109.472 74.7183 110.075 74.2276 110.608C73.737 111.131 73.1663 111.541 72.5156 111.84C71.8756 112.128 71.1876 112.272 70.4516 112.272ZM70.3556 110.816C70.9103 110.816 71.4276 110.709 71.9076 110.496C72.3983 110.283 72.825 109.984 73.1876 109.6C73.5503 109.205 73.833 108.757 74.0356 108.256C74.249 107.744 74.3556 107.189 74.3556 106.592C74.3556 106.016 74.249 105.477 74.0356 104.976C73.833 104.464 73.545 104.016 73.1716 103.632C72.809 103.237 72.3876 102.928 71.9076 102.704C71.4276 102.48 70.9156 102.368 70.3716 102.368C69.8276 102.368 69.3156 102.48 68.8356 102.704C68.3556 102.928 67.929 103.232 67.5556 103.616C67.193 104 66.905 104.448 66.6916 104.96C66.489 105.472 66.3876 106.021 66.3876 106.608C66.3876 107.184 66.489 107.728 66.6916 108.24C66.905 108.752 67.193 109.2 67.5556 109.584C67.929 109.968 68.3503 110.272 68.8196 110.496C69.2996 110.709 69.8116 110.816 70.3556 110.816ZM82.1704 112.272C81.413 112.272 80.6984 112.128 80.0264 111.84C79.365 111.552 78.7784 111.152 78.2664 110.64C77.765 110.117 77.3704 109.52 77.0824 108.848C76.7944 108.176 76.6504 107.451 76.6504 106.672C76.6504 105.883 76.789 105.141 77.0664 104.448C77.3437 103.744 77.7277 103.131 78.2184 102.608C78.7197 102.085 79.2957 101.675 79.9464 101.376C80.597 101.077 81.2904 100.928 82.0264 100.928C82.7944 100.928 83.509 101.072 84.1704 101.36C84.8424 101.648 85.4237 102.053 85.9144 102.576C86.4157 103.088 86.8104 103.691 87.0984 104.384C87.3864 105.077 87.5304 105.819 87.5304 106.608C87.5304 107.387 87.3864 108.117 87.0984 108.8C86.821 109.472 86.437 110.075 85.9464 110.608C85.4557 111.131 84.885 111.541 84.2344 111.84C83.5944 112.128 82.9064 112.272 82.1704 112.272ZM82.0744 110.816C82.629 110.816 83.1464 110.709 83.6264 110.496C84.117 110.283 84.5437 109.984 84.9064 109.6C85.269 109.205 85.5517 108.757 85.7544 108.256C85.9677 107.744 86.0744 107.189 86.0744 106.592C86.0744 106.016 85.9677 105.477 85.7544 104.976C85.5517 104.464 85.2637 104.016 84.8904 103.632C84.5277 103.237 84.1064 102.928 83.6264 102.704C83.1464 102.48 82.6344 102.368 82.0904 102.368C81.5464 102.368 81.0344 102.48 80.5544 102.704C80.0744 102.928 79.6477 103.232 79.2744 103.616C78.9117 104 78.6237 104.448 78.4104 104.96C78.2077 105.472 78.1064 106.021 78.1064 106.608C78.1064 107.184 78.2077 107.728 78.4104 108.24C78.6237 108.752 78.9117 109.2 79.2744 109.584C79.6477 109.968 80.069 110.272 80.5384 110.496C81.0184 110.709 81.5304 110.816 82.0744 110.816ZM89.7451 112.16C89.5318 112.16 89.3718 112.128 89.2651 112.064C89.1585 112.011 89.0838 111.931 89.0411 111.824C89.0091 111.717 88.9931 111.589 88.9931 111.44V101.728C88.9931 101.568 89.0091 101.435 89.0411 101.328C89.0731 101.221 89.1371 101.141 89.2331 101.088C89.3398 101.024 89.4998 100.992 89.7131 100.992C89.9265 100.992 90.0811 101.024 90.1771 101.088C90.2838 101.141 90.3531 101.221 90.3851 101.328C90.4171 101.435 90.4331 101.563 90.4331 101.712V110.816H95.7931C95.9318 110.816 96.0491 110.832 96.1451 110.864C96.2411 110.896 96.3158 110.96 96.3691 111.056C96.4331 111.152 96.4651 111.296 96.4651 111.488C96.4651 111.669 96.4385 111.813 96.3851 111.92C96.3318 112.016 96.2571 112.08 96.1611 112.112C96.0651 112.144 95.9478 112.16 95.8091 112.16H89.7451Z" fill="white"/>
</svg>
