<svg width="14" height="20" viewBox="0 0 14 20" fill="none" xmlns="http://www.w3.org/2000/svg">
<path d="M7 0C3.13 0 0 3.02231 0 6.75915C0 11.8285 7 19.3119 7 19.3119C7 19.3119 14 11.8285 14 6.75915C14 3.02231 10.87 0 7 0ZM7 9.17314C6.33696 9.17314 5.70107 8.91881 5.23223 8.4661C4.76339 8.01339 4.5 7.39938 4.5 6.75915C4.5 6.11893 4.76339 5.50492 5.23223 5.05221C5.70107 4.5995 6.33696 4.34517 7 4.34517C7.66304 4.34517 8.29893 4.5995 8.76777 5.05221C9.23661 5.50492 9.5 6.11893 9.5 6.75915C9.5 7.39938 9.23661 8.01339 8.76777 8.4661C8.29893 8.91881 7.66304 9.17314 7 9.17314Z" fill="#D6AA45"/>
</svg>
