<svg width="17" height="14" viewBox="0 0 17 14" fill="none" xmlns="http://www.w3.org/2000/svg">
<path d="M4.18503 8.27236L0.524281 7.07961C0.524281 7.07961 0.086781 6.90211 0.227656 6.49961C0.256656 6.41661 0.315156 6.34599 0.490156 6.22461C1.30128 5.65924 15.5034 0.554611 15.5034 0.554611C15.5034 0.554611 15.9044 0.419486 16.1409 0.509361C16.1994 0.527472 16.2521 0.5608 16.2935 0.605933C16.3349 0.651067 16.3635 0.706387 16.3765 0.766236C16.4021 0.871945 16.4128 0.980701 16.4083 1.08936C16.4072 1.18336 16.3958 1.27049 16.3872 1.40711C16.3007 2.80274 13.7122 13.2187 13.7122 13.2187C13.7122 13.2187 13.5573 13.8282 13.0024 13.8491C12.866 13.8535 12.7302 13.8304 12.6029 13.7812C12.4757 13.732 12.3597 13.6576 12.2618 13.5626C11.1729 12.626 7.4094 10.0967 6.57778 9.54049C6.55902 9.52771 6.54322 9.51105 6.53145 9.49164C6.51968 9.47223 6.5122 9.45053 6.50953 9.42799C6.4979 9.36936 6.56165 9.29674 6.56165 9.29674C6.56165 9.29674 13.1149 3.47174 13.2893 2.86024C13.3028 2.81286 13.2518 2.78949 13.1833 2.81024C12.748 2.97036 5.20278 7.73524 4.37003 8.26111C4.31009 8.27925 4.24673 8.2831 4.18503 8.27236Z" fill="white"/>
</svg>
