<svg width="30" height="30" viewBox="0 0 30 30" fill="none" xmlns="http://www.w3.org/2000/svg">
<g opacity="0.5">
<path d="M15 30C23.2843 30 30 23.2843 30 15C30 6.71573 23.2843 0 15 0C6.71573 0 0 6.71573 0 15C0 23.2843 6.71573 30 15 30Z" fill="black"/>
<path d="M10.1548 16.0964L11.9344 21.0222C11.9344 21.0222 12.1569 21.4831 12.3952 21.4831C12.6334 21.4831 16.177 17.7966 16.177 17.7966L20.1177 10.1853L10.2183 14.8249L10.1548 16.0964Z" fill="#C8DAEA"/>
<path d="M12.5131 17.3599L12.1715 20.9906C12.1715 20.9906 12.0285 22.1031 13.1408 20.9906C14.253 19.8781 15.3176 19.0202 15.3176 19.0202" fill="#A9C6D8"/>
<path d="M10.185 16.2724L6.52428 15.0796C6.52428 15.0796 6.08678 14.9021 6.22766 14.4996C6.25666 14.4166 6.31516 14.346 6.49016 14.2246C7.30128 13.6592 21.5034 8.55461 21.5034 8.55461C21.5034 8.55461 21.9044 8.41949 22.1409 8.50936C22.1994 8.52747 22.2521 8.5608 22.2935 8.60593C22.3349 8.65107 22.3635 8.70639 22.3765 8.76624C22.4021 8.87194 22.4128 8.9807 22.4083 9.08936C22.4072 9.18336 22.3958 9.27049 22.3872 9.40711C22.3007 10.8027 19.7122 21.2187 19.7122 21.2187C19.7122 21.2187 19.5573 21.8282 19.0024 21.8491C18.866 21.8535 18.7302 21.8304 18.6029 21.7812C18.4757 21.732 18.3597 21.6576 18.2618 21.5626C17.1729 20.626 13.4094 18.0967 12.5778 17.5405C12.559 17.5277 12.5432 17.511 12.5314 17.4916C12.5197 17.4722 12.5122 17.4505 12.5095 17.428C12.4979 17.3694 12.5617 17.2967 12.5617 17.2967C12.5617 17.2967 19.1149 11.4717 19.2893 10.8602C19.3028 10.8129 19.2518 10.7895 19.1833 10.8102C18.748 10.9704 11.2028 15.7352 10.37 16.2611C10.3101 16.2792 10.2467 16.2831 10.185 16.2724Z" fill="white"/>
</g>
</svg>
