<svg width="26" height="26" viewBox="0 0 26 26" fill="none" xmlns="http://www.w3.org/2000/svg">
<g clip-path="url(#clip0_426_25)">
<g filter="url(#filter0_f_426_25)">
<path d="M8.09201 20.5051L8.42365 20.7012C9.81658 21.5263 11.4137 21.9627 13.0424 21.9635H13.0458C18.0475 21.9635 22.1181 17.9016 22.1202 12.9091C22.1211 10.4898 21.1781 8.21481 19.4648 6.50347C18.6245 5.65948 17.6248 4.99023 16.5236 4.53446C15.4223 4.07869 14.2415 3.84546 13.0494 3.84825C8.04378 3.84825 3.97304 7.90972 3.97126 12.9019C3.9688 14.6065 4.44976 16.2771 5.35855 17.7204L5.57445 18.0629L4.65756 21.4038L8.09201 20.5051ZM2.03613 23.9921L3.58516 18.3472C2.62983 16.6953 2.12724 14.8211 2.12784 12.9011C2.13036 6.89461 7.02777 2.00806 13.0459 2.00806C15.9664 2.00954 18.7076 3.14387 20.7691 5.20296C22.8307 7.26206 23.965 9.99902 23.9639 12.9099C23.9612 18.9159 19.0631 23.8034 13.0458 23.8034H13.0411C11.2139 23.8026 9.4186 23.3451 7.82387 22.4773L2.03613 23.9921Z" fill="#B3B3B3"/>
</g>
<path fill-rule="evenodd" clip-rule="evenodd" d="M3.4731 18.2354L1.92407 23.8802L7.71181 22.3654C9.30654 23.2333 11.1019 23.6908 12.929 23.6916H12.9337C18.951 23.6916 23.8492 18.8041 23.8519 12.798C23.8529 9.88721 22.7186 7.15024 20.6571 5.09115C18.5955 3.03205 15.8543 1.89772 12.9339 1.89624C6.91571 1.89624 2.0183 6.78279 2.01578 12.7893C2.01346 14.701 2.51613 16.5795 3.4731 18.2354ZM3.85906 12.79C3.86084 7.79784 7.93157 3.73638 12.9372 3.73638C14.1293 3.73358 15.3102 3.96683 16.4114 4.42263C17.5127 4.87842 18.5124 5.54771 19.3527 6.39174C20.1978 7.23115 20.8676 8.22953 21.3234 9.32907C21.7792 10.4286 22.0119 11.6075 22.0081 12.7974C22.0062 17.7898 17.9355 21.8518 12.9337 21.8518H12.9303C11.3016 21.8509 9.70452 21.4144 8.3116 20.5893L7.97995 20.3932L4.54535 21.2921L5.46225 17.951L5.24634 17.6086C4.33756 16.1652 3.85659 14.4947 3.85906 12.79Z" fill="white"/>
<mask id="path-3-inside-1_426_25" fill="white">
<path fill-rule="evenodd" clip-rule="evenodd" d="M10.2049 8.23505C10.0005 7.7817 9.7853 7.77252 9.59106 7.76467L9.06814 7.7583C8.88622 7.7583 8.59063 7.82643 8.34074 8.09894C8.09086 8.37145 7.38586 9.03007 7.38586 10.3697C7.38586 11.7093 8.36345 13.0037 8.49967 13.1856C8.63589 13.3675 10.3869 16.2041 13.1598 17.2955C15.4641 18.2025 15.933 18.0221 16.4334 17.9768C16.9338 17.9314 18.0474 17.3181 18.2746 16.6823C18.5018 16.0465 18.5019 15.5018 18.4338 15.3879C18.3657 15.274 18.1838 15.2063 17.9107 15.0701C17.6377 14.9338 16.2967 14.2752 16.0467 14.1842C15.7967 14.0933 15.6149 14.0481 15.4328 14.3207C15.2507 14.5932 14.7286 15.2062 14.5693 15.3879C14.4101 15.5696 14.2512 15.5924 13.9782 15.4563C13.7051 15.3202 12.8267 15.0326 11.7844 14.105C10.9734 13.3833 10.426 12.492 10.2667 12.2196C10.1073 11.9473 10.2498 11.7998 10.3866 11.6641C10.509 11.5421 10.6593 11.3461 10.796 11.1872C10.9326 11.0283 10.9776 10.9147 11.0684 10.7333C11.1592 10.5518 11.114 10.3925 11.0457 10.2564C10.9775 10.1203 10.4474 8.7737 10.2049 8.2352"/>
</mask>
<path fill-rule="evenodd" clip-rule="evenodd" d="M10.2049 8.23505C10.0005 7.7817 9.7853 7.77252 9.59106 7.76467L9.06814 7.7583C8.88622 7.7583 8.59063 7.82643 8.34074 8.09894C8.09086 8.37145 7.38586 9.03007 7.38586 10.3697C7.38586 11.7093 8.36345 13.0037 8.49967 13.1856C8.63589 13.3675 10.3869 16.2041 13.1598 17.2955C15.4641 18.2025 15.933 18.0221 16.4334 17.9768C16.9338 17.9314 18.0474 17.3181 18.2746 16.6823C18.5018 16.0465 18.5019 15.5018 18.4338 15.3879C18.3657 15.274 18.1838 15.2063 17.9107 15.0701C17.6377 14.9338 16.2967 14.2752 16.0467 14.1842C15.7967 14.0933 15.6149 14.0481 15.4328 14.3207C15.2507 14.5932 14.7286 15.2062 14.5693 15.3879C14.4101 15.5696 14.2512 15.5924 13.9782 15.4563C13.7051 15.3202 12.8267 15.0326 11.7844 14.105C10.9734 13.3833 10.426 12.492 10.2667 12.2196C10.1073 11.9473 10.2498 11.7998 10.3866 11.6641C10.509 11.5421 10.6593 11.3461 10.796 11.1872C10.9326 11.0283 10.9776 10.9147 11.0684 10.7333C11.1592 10.5518 11.114 10.3925 11.0457 10.2564C10.9775 10.1203 10.4474 8.7737 10.2049 8.2352" fill="white"/>
<path d="M9.59106 7.76467L9.59914 7.56475L9.5935 7.56468L9.59106 7.76467ZM9.06814 7.7583L9.07058 7.5583H9.06814V7.7583ZM13.1598 17.2955L13.2331 17.1094L13.233 17.1094L13.1598 17.2955ZM11.7844 14.105L11.6514 14.2544L11.6514 14.2544L11.7844 14.105ZM10.3866 11.6641L10.5274 11.8061L10.5278 11.8057L10.3866 11.6641ZM10.3873 8.15282C10.2752 7.90434 10.1471 7.74805 9.99431 7.65967C9.84289 7.57209 9.69349 7.56864 9.59914 7.56483L9.58299 7.96451C9.68288 7.96854 9.73817 7.97361 9.79402 8.00592C9.8485 8.03744 9.93023 8.11241 10.0226 8.31728L10.3873 8.15282ZM9.5935 7.56468L9.07058 7.55832L9.06571 7.95829L9.58863 7.96465L9.5935 7.56468ZM9.06814 7.5583C8.84052 7.5583 8.48757 7.64289 8.19333 7.96377L8.48815 8.23411C8.69369 8.00996 8.93192 7.9583 9.06814 7.9583V7.5583ZM8.19333 7.96377C7.94264 8.23716 7.18586 8.94649 7.18586 10.3697H7.58586C7.58586 9.11366 8.23907 8.50574 8.48815 8.23411L8.19333 7.96377ZM7.18586 10.3697C7.18586 11.0846 7.44551 11.7759 7.71343 12.3025C7.9828 12.8319 8.26954 13.2119 8.33959 13.3055L8.65974 13.0657C8.59358 12.9773 8.32341 12.6193 8.06994 12.1211C7.81501 11.6201 7.58586 10.9944 7.58586 10.3697H7.18586ZM8.33959 13.3055C8.46044 13.4668 10.2482 16.3644 13.0866 17.4816L13.233 17.1094C10.5256 16.0438 8.81134 13.2681 8.65974 13.0657L8.33959 13.3055ZM13.0865 17.4816C14.2451 17.9376 14.9556 18.1258 15.4466 18.1915C15.9429 18.2579 16.2163 18.1972 16.4514 18.1759L16.4154 17.7776C16.1502 17.8016 15.9388 17.8538 15.4996 17.795C15.0549 17.7355 14.3788 17.5603 13.2331 17.1094L13.0865 17.4816ZM16.4514 18.1759C16.7484 18.149 17.1841 17.9649 17.5649 17.719C17.9432 17.4748 18.3263 17.1321 18.4629 16.7496L18.0863 16.615C17.9958 16.8683 17.7084 17.1502 17.348 17.3829C16.9901 17.614 16.6188 17.7591 16.4154 17.7776L16.4514 18.1759ZM18.4629 16.7496C18.5824 16.4153 18.6428 16.1034 18.6642 15.8567C18.6749 15.7335 18.6761 15.6236 18.669 15.5332C18.6628 15.4538 18.6483 15.3569 18.6055 15.2852L18.2622 15.4905C18.2534 15.4758 18.2644 15.4898 18.2702 15.5644C18.2752 15.628 18.2749 15.7154 18.2657 15.8221C18.2472 16.0352 18.194 16.3135 18.0863 16.615L18.4629 16.7496ZM18.6055 15.2852C18.5419 15.179 18.4372 15.1122 18.3451 15.0619C18.2536 15.0119 18.1248 14.9533 18.0001 14.8911L17.8214 15.249C17.9698 15.323 18.0684 15.3665 18.1532 15.4128C18.2373 15.4589 18.2576 15.4829 18.2622 15.4905L18.6055 15.2852ZM18.0001 14.8911C17.8626 14.8225 17.4583 14.6234 17.0569 14.43C16.6619 14.2396 16.2521 14.0461 16.1151 13.9963L15.9783 14.3722C16.0913 14.4133 16.477 14.5946 16.8833 14.7903C17.2832 14.983 17.6858 15.1813 17.8214 15.249L18.0001 14.8911ZM16.1151 13.9963C15.996 13.953 15.8447 13.8999 15.6915 13.9175C15.5163 13.9375 15.3791 14.0411 15.2665 14.2095L15.5991 14.4318C15.6686 14.3277 15.7133 14.3176 15.7371 14.3149C15.7827 14.3096 15.8474 14.3246 15.9783 14.3722L16.1151 13.9963ZM15.2665 14.2095C15.0931 14.4691 14.5803 15.0719 14.4189 15.2561L14.7198 15.5197C14.8768 15.3405 15.4084 14.7172 15.5991 14.4318L15.2665 14.2095ZM14.4189 15.2561C14.3584 15.3252 14.3202 15.3394 14.2923 15.3428C14.2561 15.3472 14.1908 15.3388 14.0674 15.2773L13.8889 15.6353C14.0386 15.7099 14.1892 15.7582 14.3406 15.7398C14.5001 15.7204 14.6211 15.6324 14.7198 15.5197L14.4189 15.2561ZM14.0674 15.2773C13.7751 15.1316 12.9337 14.8601 11.9174 13.9556L11.6514 14.2544C12.7197 15.2051 13.6352 15.5088 13.8889 15.6353L14.0674 15.2773ZM11.9174 13.9556C11.1302 13.255 10.5954 12.3855 10.4393 12.1186L10.0941 12.3207C10.2567 12.5986 10.8167 13.5116 11.6514 14.2544L11.9174 13.9556ZM10.4393 12.1186C10.3836 12.0235 10.3952 11.9813 10.4029 11.9605C10.4179 11.9205 10.4537 11.8792 10.5274 11.8061L10.2457 11.5221C10.1827 11.5846 10.0788 11.685 10.0282 11.8207C9.97035 11.9756 9.99035 12.1434 10.0941 12.3207L10.4393 12.1186ZM10.5278 11.8057C10.6568 11.6771 10.8239 11.4614 10.9476 11.3176L10.6443 11.0568C10.4947 11.2308 10.3612 11.407 10.2454 11.5225L10.5278 11.8057ZM10.9476 11.3176C11.1043 11.1354 11.1613 10.9946 11.2473 10.8228L10.8896 10.6438C10.7939 10.8348 10.761 10.9212 10.6443 11.0568L10.9476 11.3176ZM11.2473 10.8228C11.3789 10.5597 11.3054 10.328 11.2245 10.1667L10.8669 10.346C10.9226 10.457 10.9395 10.544 10.8896 10.6438L11.2473 10.8228ZM11.2245 10.1667C11.195 10.108 11.0507 9.75063 10.8759 9.32128C10.705 8.90152 10.5104 8.42641 10.3873 8.15308L10.0226 8.31731C10.142 8.58249 10.3336 9.04992 10.5054 9.47209C10.6734 9.88468 10.8281 10.2687 10.8669 10.346L11.2245 10.1667Z" fill="black" mask="url(#path-3-inside-1_426_25)"/>
</g>
<defs>
<filter id="filter0_f_426_25" x="-5.02587" y="-5.05394" width="36.0517" height="36.1079" filterUnits="userSpaceOnUse" color-interpolation-filters="sRGB">
<feFlood flood-opacity="0" result="BackgroundImageFix"/>
<feBlend mode="normal" in="SourceGraphic" in2="BackgroundImageFix" result="shape"/>
<feGaussianBlur stdDeviation="3.531" result="effect1_foregroundBlur_426_25"/>
</filter>
<clipPath id="clip0_426_25">
<rect width="26" height="26" fill="white"/>
</clipPath>
</defs>
</svg>
