<svg width="22" height="16" viewBox="0 0 22 16" fill="none" xmlns="http://www.w3.org/2000/svg">
<path d="M10.9927 0.922119C10.9927 0.922119 4.67079 0.922125 3.08408 1.33442C2.2345 1.5718 1.53494 2.27137 1.29756 3.13345C0.885263 4.72016 0.885254 8.0061 0.885254 8.0061C0.885254 8.0061 0.885263 11.3045 1.29756 12.8663C1.53494 13.7283 2.22201 14.4154 3.08408 14.6528C4.68329 15.0776 10.9927 15.0776 10.9927 15.0776C10.9927 15.0776 17.3271 15.0776 18.9138 14.6653C19.7758 14.4279 20.4629 13.7533 20.6878 12.8788C21.1126 11.3045 21.1126 8.0186 21.1126 8.0186C21.1126 8.0186 21.1251 4.72016 20.6878 3.13345C20.4629 2.27137 19.7758 1.58431 18.9138 1.35942C17.3271 0.922139 10.9927 0.922119 10.9927 0.922119ZM8.98115 4.97017L14.2411 8.0061L8.98115 11.0295V4.97017Z" fill="white"/>
</svg>
