<svg width="30" height="30" viewBox="0 0 30 30" fill="none" xmlns="http://www.w3.org/2000/svg">
<g opacity="0.5">
<path d="M30 15C30 6.71573 23.2843 0 15 0C6.71573 0 0 6.71573 0 15C0 23.2843 6.71573 30 15 30C23.2843 30 30 23.2843 30 15Z" fill="black"/>
<path d="M14.9927 7.92212C14.9927 7.92212 8.67079 7.92213 7.08408 8.33442C6.2345 8.5718 5.53494 9.27137 5.29756 10.1334C4.88526 11.7202 4.88525 15.0061 4.88525 15.0061C4.88525 15.0061 4.88526 18.3045 5.29756 19.8663C5.53494 20.7283 6.22201 21.4154 7.08408 21.6528C8.68329 22.0776 14.9927 22.0776 14.9927 22.0776C14.9927 22.0776 21.3271 22.0776 22.9138 21.6653C23.7758 21.4279 24.4629 20.7533 24.6878 19.8788C25.1126 18.3045 25.1126 15.0186 25.1126 15.0186C25.1126 15.0186 25.1251 11.7202 24.6878 10.1334C24.4629 9.27137 23.7758 8.58431 22.9138 8.35942C21.3271 7.92214 14.9927 7.92212 14.9927 7.92212ZM12.9812 11.9702L18.2411 15.0061L12.9812 18.0295V11.9702Z" fill="white"/>
</g>
</svg>
