<svg width="23" height="23" viewBox="0 0 23 23" fill="none" xmlns="http://www.w3.org/2000/svg">
<path d="M11.0758 0C8.06802 0 7.69056 0.0131552 6.50924 0.066929C5.33023 0.120934 4.52546 0.307642 3.82128 0.581588C3.09288 0.864535 2.475 1.24303 1.85942 1.859C1.24338 2.47475 0.864991 3.0928 0.581198 3.82117C0.306634 4.52577 0.119747 5.33099 0.0666797 6.50986C0.0138434 7.6915 0 8.0693 0 11.0779C0 14.0864 0.0133823 14.4628 0.0669107 15.6445C0.121131 16.8238 0.307788 17.6288 0.581429 18.3332C0.86453 19.0618 1.24292 19.6798 1.85873 20.2956C2.47407 20.9118 3.09196 21.2912 3.8199 21.5741C4.52453 21.8481 5.32954 22.0348 6.50832 22.0888C7.68963 22.1426 8.06687 22.1557 11.0744 22.1557C14.0824 22.1557 14.4587 22.1426 15.64 22.0888C16.819 22.0348 17.6247 21.8481 18.3293 21.5741C19.0575 21.2912 19.6745 20.9118 20.2898 20.2956C20.9058 19.6798 21.2842 19.0618 21.568 18.3334C21.8403 17.6288 22.0272 16.8236 22.0825 15.6447C22.1356 14.4631 22.1495 14.0864 22.1495 11.0779C22.1495 8.0693 22.1356 7.69173 22.0825 6.51009C22.0272 5.33076 21.8403 4.52577 21.568 3.8214C21.2842 3.0928 20.9058 2.47475 20.2898 1.859C19.6738 1.2428 19.0577 0.864304 18.3286 0.581588C17.6226 0.307642 16.8174 0.120934 15.6384 0.066929C14.4571 0.0131552 14.081 0 11.0723 0H11.0758ZM10.0823 1.99632C10.3771 1.99586 10.7061 1.99632 11.0758 1.99632C14.0327 1.99632 14.3832 2.00694 15.5509 2.06002C16.6307 2.10941 17.2168 2.28989 17.6072 2.44151C18.124 2.6423 18.4924 2.88232 18.8798 3.27005C19.2675 3.65777 19.5074 4.02703 19.7086 4.544C19.8602 4.93403 20.0408 5.52024 20.09 6.60033C20.1431 7.76812 20.1546 8.11892 20.1546 11.0753C20.1546 14.0317 20.1431 14.3825 20.09 15.5503C20.0406 16.6304 19.8602 17.2166 19.7086 17.6066C19.5079 18.1236 19.2675 18.4917 18.8798 18.8792C18.4922 19.2669 18.1242 19.507 17.6072 19.7077C17.2172 19.8601 16.6307 20.0401 15.5509 20.0895C14.3835 20.1426 14.0327 20.1541 11.0758 20.1541C8.11855 20.1541 7.76808 20.1426 6.60061 20.0895C5.52081 20.0396 4.93476 19.8591 4.54415 19.7075C4.02732 19.5067 3.65816 19.2667 3.27054 18.879C2.88292 18.4913 2.64296 18.1229 2.44177 17.6057C2.29018 17.2157 2.10953 16.6295 2.06038 15.5494C2.00732 14.3816 1.9967 14.0308 1.9967 11.0726C1.9967 8.1143 2.00732 7.76535 2.06038 6.59756C2.10976 5.51747 2.29018 4.93126 2.44177 4.54077C2.6425 4.0238 2.88292 3.65454 3.27054 3.26681C3.65816 2.87909 4.02732 2.63907 4.54415 2.43782C4.93453 2.2855 5.52081 2.10549 6.60061 2.05587C7.62226 2.00971 8.01819 1.99586 10.0823 1.99355V1.99632ZM16.9874 3.83571C16.2537 3.83571 15.6584 4.43045 15.6584 5.16459C15.6584 5.8985 16.2537 6.49393 16.9874 6.49393C17.7211 6.49393 18.3164 5.8985 18.3164 5.16459C18.3164 4.43068 17.7211 3.83525 16.9874 3.83525V3.83571ZM11.0758 5.38892C7.93489 5.38892 5.38837 7.93613 5.38837 11.0779C5.38837 14.2196 7.93489 16.7656 11.0758 16.7656C14.2166 16.7656 16.7622 14.2196 16.7622 11.0779C16.7622 7.93613 14.2164 5.38892 11.0755 5.38892H11.0758ZM11.0758 7.38524C13.1145 7.38524 14.7674 9.03838 14.7674 11.0779C14.7674 13.1171 13.1145 14.7705 11.0758 14.7705C9.03684 14.7705 7.38415 13.1171 7.38415 11.0779C7.38415 9.03838 9.03684 7.38524 11.0758 7.38524Z" fill="white"/>
</svg>
