<svg width="31" height="30" viewBox="0 0 31 30" fill="none" xmlns="http://www.w3.org/2000/svg">
<g opacity="0.5">
<path d="M15.114 0C8.85167 0 7.02016 0.00646208 6.66415 0.036003C5.37901 0.142858 4.57932 0.34526 3.7081 0.779143C3.03668 1.11263 2.50717 1.4992 1.98457 2.0411C1.03283 3.02933 0.456014 4.24513 0.247207 5.69033C0.145688 6.39193 0.116155 6.53502 0.110156 10.1187C0.107849 11.3133 0.110156 12.8854 0.110156 14.9941C0.110156 21.2531 0.117078 23.0833 0.147072 23.4387C0.250899 24.6896 0.447016 25.4765 0.862323 26.3374C1.65602 27.9852 3.17189 29.2222 4.95771 29.6838C5.57605 29.8431 6.259 29.9308 7.13576 29.9723C7.50723 29.9885 11.2934 30 15.082 30C18.8705 30 22.659 29.9954 23.0212 29.9769C24.0364 29.9292 24.6259 29.85 25.2777 29.6815C27.0751 29.2176 28.5633 27.9991 29.3731 26.3282C29.7803 25.4881 29.9868 24.6711 30.0803 23.4855C30.1006 23.227 30.1091 19.1058 30.1091 14.9902C30.1091 10.8738 30.0999 6.76026 30.0796 6.50178C29.985 5.29706 29.7785 4.487 29.3581 3.63077C29.0132 2.92986 28.6302 2.40643 28.0741 1.87124C27.0818 0.923155 25.8682 0.346183 24.422 0.13755C23.7213 0.0362338 23.5817 0.0062313 19.9962 0H15.114Z" fill="url(#paint0_radial_91_205)"/>
<path d="M15.114 0C8.85167 0 7.02016 0.00646208 6.66415 0.036003C5.37901 0.142858 4.57932 0.34526 3.7081 0.779143C3.03668 1.11263 2.50717 1.4992 1.98457 2.0411C1.03283 3.02933 0.456014 4.24513 0.247207 5.69033C0.145688 6.39193 0.116155 6.53502 0.110156 10.1187C0.107849 11.3133 0.110156 12.8854 0.110156 14.9941C0.110156 21.2531 0.117078 23.0833 0.147072 23.4387C0.250899 24.6896 0.447016 25.4765 0.862323 26.3374C1.65602 27.9852 3.17189 29.2222 4.95771 29.6838C5.57605 29.8431 6.259 29.9308 7.13576 29.9723C7.50723 29.9885 11.2934 30 15.082 30C18.8705 30 22.659 29.9954 23.0212 29.9769C24.0364 29.9292 24.6259 29.85 25.2777 29.6815C27.0751 29.2176 28.5633 27.9991 29.3731 26.3282C29.7803 25.4881 29.9868 24.6711 30.0803 23.4855C30.1006 23.227 30.1091 19.1058 30.1091 14.9902C30.1091 10.8738 30.0999 6.76026 30.0796 6.50178C29.985 5.29706 29.7785 4.487 29.3581 3.63077C29.0132 2.92986 28.6302 2.40643 28.0741 1.87124C27.0818 0.923155 25.8682 0.346183 24.422 0.13755C23.7213 0.0362338 23.5817 0.0062313 19.9962 0H15.114Z" fill="black"/>
<path d="M15.0758 4C12.068 4 11.6906 4.01316 10.5092 4.06693C9.33023 4.12093 8.52546 4.30764 7.82128 4.58159C7.09288 4.86453 6.475 5.24303 5.85942 5.859C5.24338 6.47475 4.86499 7.0928 4.5812 7.82117C4.30663 8.52577 4.11975 9.33099 4.06668 10.5099C4.01384 11.6915 4 12.0693 4 15.0779C4 18.0864 4.01338 18.4628 4.06691 19.6445C4.12113 20.8238 4.30779 21.6288 4.58143 22.3332C4.86453 23.0618 5.24292 23.6798 5.85873 24.2956C6.47407 24.9118 7.09196 25.2912 7.8199 25.5741C8.52453 25.8481 9.32954 26.0348 10.5083 26.0888C11.6896 26.1426 12.0669 26.1557 15.0744 26.1557C18.0824 26.1557 18.4587 26.1426 19.64 26.0888C20.819 26.0348 21.6247 25.8481 22.3293 25.5741C23.0575 25.2912 23.6745 24.9118 24.2898 24.2956C24.9058 23.6798 25.2842 23.0618 25.568 22.3334C25.8403 21.6288 26.0272 20.8236 26.0825 19.6447C26.1356 18.4631 26.1495 18.0864 26.1495 15.0779C26.1495 12.0693 26.1356 11.6917 26.0825 10.5101C26.0272 9.33076 25.8403 8.52577 25.568 7.8214C25.2842 7.0928 24.9058 6.47475 24.2898 5.859C23.6738 5.2428 23.0577 4.8643 22.3286 4.58159C21.6226 4.30764 20.8174 4.12093 19.6384 4.06693C18.4571 4.01316 18.081 4 15.0723 4H15.0758ZM14.0823 5.99632C14.3771 5.99586 14.7061 5.99632 15.0758 5.99632C18.0327 5.99632 18.3832 6.00694 19.5509 6.06002C20.6307 6.10941 21.2168 6.28989 21.6072 6.44151C22.124 6.6423 22.4924 6.88232 22.8798 7.27005C23.2675 7.65777 23.5074 8.02703 23.7086 8.544C23.8602 8.93403 24.0408 9.52024 24.09 10.6003C24.1431 11.7681 24.1546 12.1189 24.1546 15.0753C24.1546 18.0317 24.1431 18.3825 24.09 19.5503C24.0406 20.6304 23.8602 21.2166 23.7086 21.6066C23.5079 22.1236 23.2675 22.4917 22.8798 22.8792C22.4922 23.2669 22.1242 23.507 21.6072 23.7077C21.2172 23.8601 20.6307 24.0401 19.5509 24.0895C18.3835 24.1426 18.0327 24.1541 15.0758 24.1541C12.1186 24.1541 11.7681 24.1426 10.6006 24.0895C9.52081 24.0396 8.93476 23.8591 8.54415 23.7075C8.02732 23.5067 7.65816 23.2667 7.27054 22.879C6.88292 22.4913 6.64296 22.1229 6.44177 21.6057C6.29018 21.2157 6.10953 20.6295 6.06038 19.5494C6.00732 18.3816 5.9967 18.0308 5.9967 15.0726C5.9967 12.1143 6.00732 11.7654 6.06038 10.5976C6.10976 9.51747 6.29018 8.93126 6.44177 8.54077C6.6425 8.0238 6.88292 7.65454 7.27054 7.26681C7.65816 6.87909 8.02732 6.63907 8.54415 6.43782C8.93453 6.2855 9.52081 6.10549 10.6006 6.05587C11.6223 6.00971 12.0182 5.99586 14.0823 5.99355V5.99632ZM20.9874 7.83571C20.2537 7.83571 19.6584 8.43045 19.6584 9.16459C19.6584 9.8985 20.2537 10.4939 20.9874 10.4939C21.7211 10.4939 22.3164 9.8985 22.3164 9.16459C22.3164 8.43068 21.7211 7.83525 20.9874 7.83525V7.83571ZM15.0758 9.38892C11.9349 9.38892 9.38837 11.9361 9.38837 15.0779C9.38837 18.2196 11.9349 20.7656 15.0758 20.7656C18.2166 20.7656 20.7622 18.2196 20.7622 15.0779C20.7622 11.9361 18.2164 9.38892 15.0755 9.38892H15.0758ZM15.0758 11.3852C17.1145 11.3852 18.7674 13.0384 18.7674 15.0779C18.7674 17.1171 17.1145 18.7705 15.0758 18.7705C13.0368 18.7705 11.3842 17.1171 11.3842 15.0779C11.3842 13.0384 13.0368 11.3852 15.0758 11.3852Z" fill="white"/>
</g>
<defs>
<radialGradient id="paint0_radial_91_205" cx="0" cy="0" r="1" gradientUnits="userSpaceOnUse" gradientTransform="translate(8.07792 32.3106) rotate(-90) scale(29.7322 27.6533)">
<stop stop-color="#FFDD55"/>
<stop offset="0.1" stop-color="#FFDD55"/>
<stop offset="0.5" stop-color="#FF543E"/>
<stop offset="1" stop-color="#C837AB"/>
</radialGradient>
</defs>
</svg>
